<?xml version="1.0" encoding="UTF-8"?>
<svg id="Calque_2" data-name="Calque 2" xmlns="http://www.w3.org/2000/svg" viewBox="0 0 164.99 191.74">
  <defs>
    <style>
      .cls-1 {
        font-family: CoconOT-Light, CoconOT;
        font-size: 43.59px;
        font-weight: 300;
        letter-spacing: .4em;
      }

      .cls-1, .cls-2 {
        fill: #6c3077;
      }

      .cls-3 {
        fill: none;
      }

      .cls-4 {
        fill: #f29b00;
      }
    </style>
  </defs>
  <g id="Calque_3">
    <g>
      <g>
        <g>
          <path class="cls-2" d="M89.94,24.19c0,.07,0,.13-.01.2.11-.05.12-.11.01-.2Z"/>
          <g>
            <polygon class="cls-2" points="89.62 24.59 89.63 24.59 89.63 24.59 89.62 24.59"/>
            <path class="cls-2" d="M89.67,24.53s.03-.04.04-.05l-.08.1s.03-.03.04-.05Z"/>
            <path class="cls-2" d="M89.65,24.56s.04-.05.07-.09c-.06.08.02-.02-.07.09Z"/>
            <path class="cls-2" d="M89.86,24.34h0s0,0,0,0Z"/>
            <path class="cls-2" d="M90.07,24.23l.1-.05c-.18.09,0-.02-.08.02l.03-.02s-.14.06-.2.11c0,0,.03-.03.04-.04-.03.03-.07.06-.08.07.02-.02.04-.03.05-.04.13-.13-.09.08.01-.02-.01.01-.07.07-.11.11-.02.02-.1.09-.12.13-.01.01,0-.01.06-.07-.07.08-.09.1-.09.1-.02.02-.02.03,0,0-.02.02-.02.02-.04.05.01-.01,0,0,.02-.02h0s0,0,0,0h0s0,0,.03-.04c.01-.02,0,0,.01-.02,0,0,0,0,0,0,.03-.04.07-.07.1-.1.06-.05.02-.02.05-.04h.02s0-.01,0-.01c.03-.02.06-.03.07-.03.01,0,0,0-.02-.01h0c-.06-.05.04.04-.02-.02-.03-.03-.03-.03-.03-.03,0,0,0,0-.02-.02-.01-.02,0,0,.04.06-.02-.02-.01,0,0,.09l-.02-.06s0,.02,0,.02h0s0,0,0,0l.08.06h0s0,0,0,0c.01,0,.04,0,.06,0,.05,0,.11,0,.06-.01.14,0-.36-.05-.17-.05.31.01-.35-.04-.03-.02.48.02.17-.02-.11-.05.17,0-.27-.04.08-.03-.22-.02.28,0,.21,0h-.08c.24,0-.33-.03.02,0h.02c.18.01-.42-.03-.21-.02h-.09s.1,0,.13,0c-.01,0-.16-.01-.11,0,.33.02-.04,0,.33.02,0,0,.16.01.24.02.04,0,.02,0-.15-.01-.18-.01-.34-.02-.48-.03h.13c-.13,0-.07,0-.17,0-.02,0-.21-.01-.29-.01,0,0,0,0,.01,0,.16.01.06,0,.04,0h-.07c-.15-.01.3.02.04,0,.07,0,.06.01.06.02.1,0,0,0,.18.01-.22-.01-.28-.01-.27-.01-.02,0-.03,0-.04,0-.29-.02.27.02-.09,0,.21.02-.04,0,.21.02-.06,0-.1,0-.15,0,0,0-.1,0-.11,0,.22.02-.1,0,.2.02-.06,0-.19,0-.07,0h-.04s.03,0,.22.02c-.29-.02-.23-.01-.32-.02.13.01.09.01.21.02-.12,0,.04,0-.14,0,.37.03.24.04-.04.03h-.01c.11,0,.34.02.48.03-.02,0-.05,0-.05,0,.04,0-.15,0-.12,0t-.06,0c.09,0-.15,0,0,0h-.05s.07,0,.07,0c-.06,0-.12,0-.14-.01-.06.01.27.05.22.06h-.06s.11,0,.11,0c-.03,0-.05,0-.06,0-.05,0-.04,0,0,0h.02s0,0,0,0h0s.45.32.45.32h0s0-.03,0-.02c.01.03.04.09.05.12-.06-.16.1.2-.04-.13,0,.02.04.09.05.12-.03-.12-.02-.12.03-.07-.15-.29.02-.05-.11-.27l.04.05c-.12-.19.03,0,.02-.06.03.01-.03-.04-.03-.05l.06.05c-.26-.17.27.1-.03-.08l.1.04c-.16-.06.06,0-.22-.08l.09.03s-.08-.02-.1-.03h0s0,0,.02,0c.06.01.14,0,.02,0h.07c-.05,0-.1,0-.03,0,.01,0,.03,0,.05,0,.28-.03-.03-.03-.02-.02l.13-.03c-.15.03-.01-.02-.08,0l.06-.02-.08.03.11-.04s-.1.02-.11.02Z"/>
            <path class="cls-2" d="M89.93,24.27h0s0,0,0,0Z"/>
            <path class="cls-2" d="M89.37,24.16s.01,0,.02,0c-.02,0-.02,0-.02,0Z"/>
          </g>
        </g>
        <g>
          <path class="cls-2" d="M84.3,99.74s0,.02,0,.02c.32.03.55.05.69.06,0,0,0,0-.01-.01-.16-.02-.39-.04-.67-.07Z"/>
          <g>
            <polygon class="cls-2" points="84.23 100.41 84.23 100.45 84.24 100.34 84.23 100.41"/>
            <path class="cls-2" d="M84.27,100.18s0-.05,0-.07l-.04.29c-.01.17.04-.34.03-.23Z"/>
            <path class="cls-2" d="M84.26,100.21c0,.07.01-.07.02-.12-.01.11,0-.03-.02.12Z"/>
            <path class="cls-2" d="M84.5,100.16h0s0,0,0,0Z"/>
            <path class="cls-2" d="M84.61,99.7v-.11c-.02.2-.01,0-.03.08v-.04s-.07.14-.1.22c0-.01,0-.04,0-.06,0,.04-.01.11-.01.1,0-.02,0-.05,0-.06.01-.18-.03.11-.02-.03,0,.02-.01.1-.02.15-.03.04-.06.08-.09.22,0-.02,0-.07.01-.14-.05.29-.06.17-.07.12,0,.08,0,.08-.02.16,0,.1.03-.19.02-.05v.07s.01-.19,0-.09c0,.06,0,.1,0,.1.01-.03.02.04.04-.14-.01.16,0,0,0,.16,0-.06,0-.05.02-.16.02.09.07-.06.1-.05.05-.31.03.06.06-.04v.03c.01-.08.02-.11.03-.07l.02-.13c.02.28.08.09.11.21.04.08.06.32.15-.1,0,.03,0,.05,0,.06.02-.06.02.05.04-.01v.03c.05-.24.06,0,.11-.18l-.07-.03s.02-.02.04-.04h0s.07-.19.07-.19c-.03-.02-.08,0-.12.08v-.06c-.04.13-.04-.21-.08-.11-.02-.15-.1.35-.12.16,0-.31-.08.35-.07.03,0-.48-.06-.18-.13.11-.02-.17-.1.26-.1-.09-.04.22-.01-.28-.04-.22v.08c0-.24-.05.33-.02-.02v-.02c.01-.18-.04.42-.03.21v.09s0,0,0,0l-.16-.21h0s0,0,0,0h0s.02,0,.04,0c.03,0,.07.01.09.02-.01,0-.16-.03-.11-.02.35.07-.07-.03.32.05,0,0,.15.03.24.05.03,0,.04,0-.16-.04-.17-.03-.32-.06-.46-.09l.13.03c-.13-.02-.07-.01-.16-.03-.02,0-.21-.03-.29-.05,0,0,0,0,.01,0,.16.03.06.02.04.02h-.04s-.02-.01-.02-.01l.48.66c-.01.15.03-.3,0-.04.02-.06.03-.06.04-.06.01-.1,0,.01.02-.18-.02.22-.01.28,0,.27,0,.02,0,.04,0,.04-.02.29.03-.26,0,.09.02-.25,0,.08.03-.21,0,.05,0,.1-.01.15.01,0,.02.1.03.11.03-.22.01.1.05-.2,0,.06,0,.19.02.07v.04s.02-.03.04-.22c-.02.29-.01.23-.02.32.02-.13.03-.09.05-.21,0,.13.01-.06,0,.14.06-.37.08-.24.09.05h0c.01-.09.04-.32.05-.46,0,.02,0,.05,0,.05,0-.04,0,.15,0,.12t0,.06c.01-.08,0,.15.02,0v.05s0-.07,0-.07c0,.06-.01.16-.01.14.04.07.12-.26.16-.21v.06s.01-.11.01-.11c0,.03,0,.05,0,.06,0,.11.03-.07.04-.04,0,.03,0,.09-.01.13.02-.17,0,.23.03-.13,0,.02,0,.1-.01.13.03-.12.06-.11.08-.05.02-.11.03-.15.03-.16l.34-.54-.21.16s0,0-.01,0l-.09-.03s-.02.03-.03.12v-.06c-.04.22-.05-.02-.08.02,0-.03-.02.05-.04.05v-.08c-.04.31,0-.28-.06.06v-.11c0,.17,0-.06-.02.23v-.09c-.05.38,0-.18-.04.07v-.07c0,.05-.01.1,0,.03,0-.01,0-.03,0-.05.01-.28-.03.03-.05.01l.02-.13c-.02.15-.02,0-.04.08v-.06s0,.08,0,.08v-.12s-.02.09-.03.11Z"/>
            <path class="cls-2" d="M84.47,99.83h0s0,0,0,0Z"/>
            <path class="cls-2" d="M83.74,99.65s.01,0,.02,0c-.02,0-.02,0-.02,0Z"/>
          </g>
        </g>
        <g>
          <path class="cls-2" d="M94.25,73.58c-.59.51-1.18,1.05-1.76,1.63-1.2,1.15-2.34,2.34-3.35,3.68-.37.49-.78,1.07-1.2,1.68-.66.9-1.3,1.82-1.91,2.76.24-5.68.21-11.39.17-17.11.73-10.22,1.57-20.43,2.64-30.4.26-2.77.88-8.28,1.09-11.43-.04.02-.1.03-.16.04,0-.03.03-.09.03-.09,0,0,.05-.15.06-.19,0,0,.01,0,.02-.01.03.02.05.03.07.05,0-.03,0-.07,0-.1,6.41-4.21,10.97-9.77,9.72-17.45-.84-4.18-6.3-6.14-9.78-6.03-8.42.01-16.29,3.86-21.8,9.58-5.2,5.53-10.76,12.38-15.33,19.78-1.4.46-2.64.89-3.63,1.27-13.3,4.7-27.98,8.71-39.73,17.22-7.74,5.41-12.14,17.23-5.91,25.23,8.06,10.51,26.41,7.38,32.6-3.01.73-1.06-.93-2.26-1.84-1.26-3.46,3.74-8.32,6.25-13.55,6.5-11.04.49-17.53-8.36-11.58-17.43,2.12-3.55,6.74-6.38,11.45-8.67,8.37-3.89,17.52-6.76,26.74-9.52-5.52,12.67-6.7,25.92,2.41,36.53-9.26.35-17.1,7.42-20.31,15.91-4.28,10.18-3.92,21.3.08,31.18,4.28,11.58,14.05,19.01,27.39,13.61,10.83-3.88,19.09-12.65,23.02-22.62,2.06-4.97,3.44-10.02,4.39-15.14-.07,0-.12,0-.19-.02,0,0,0-.02,0-.03.07,0,.13.01.19.02.03-.15.06-.29.08-.44.19.17.36.36.59.51.27.03.3.04.01.01.92.61,2.11,1.06,3.63,1.3,6.62-.09,10.66-3.81,15.42-7.02,3.23-2.44,6.62-5.37,8-9.13.36.16.7.34,1.12.47,2,.37,3.8-.23,5.19-.91,3.4-1.62,6.13-4.05,8.05-6.93,2.02,1.82,4.75,2.77,8.4,2.14,6.25-1.86,9.89-7.68,11.58-13.03.34-.94-1.16-1.62-1.74-.79-3.24,3.93-5.75,8.95-10.78,10.52-2.49.49-4.33-.53-5.68-2.18,1.34-3.29,1.74-6.93,1.01-10.52-.33-2.11-.89-4.14-1.65-6.14-.05-.16-.19-.66-.58-1.16-.84-.97-1.39-1.06-1.79-1.28-4.91-1.26-10.46.93-13.29,4.84-3.77,2.45-7.81,5.94-11.15,8.31-1.9,1.53-3.85,3.02-5.72,4.6-.07.06-.15.12-.22.18-.18.15-.35.31-.53.47M114.24,66.43c-.1-.25-.16-.49-.2-.73.39-1.18.81-2.29,1.21-3.37,1.39-1.54,3.72-2.66,5.92-2.87-.85,1.6-1.88,3.17-2.92,4.54-.96,1.2-2.36,2.83-3.62,3.02.08,0-.15-.1-.38-.58ZM110.11,64.31c-.04.39-.05.78-.02,1.17-.71,1.65-1.38,3.45-1.89,5.29-1.34-1.03-3.01-1.65-5.08-1.57-.04,0-.08.02-.12.02,2.29-1.76,4.69-3.4,7.11-4.91ZM86.92,23.81s-.02.06-.02.06c-.03.07-.05.15-.07.23-.13-.09-.11-.19.1-.29ZM91.35,9.06s.06.03.06.03c0,.02-.02,0-.06-.03ZM73.32,14.76c4.29-3.72,10.42-6.18,16.22-6.07.58.02,1.1.13,1.45.23-.04,7.78-17.01,14.09-30,18.37,3.84-4.46,8.1-8.63,12.33-12.53ZM54.21,132.57c-6.28,4.23-13.82,2.86-17.07-3.65-3.33-6.12-3.05-13.47-2.32-20.13,1.28-11.81,6.48-28.66,22.61-25.58,2.78.59,4.32-3.16,1.74-4.42-9.25-4.91-13.71-15.67-11.92-25.39.91-5.23,2.91-10.14,5.58-14.78,5.19-1.55,10.36-3.13,15.38-4.89,5.11-1.89,11.89-4.19,17.87-7.37-10.68,34.24,2.86,83.25-31.87,106.21ZM95.57,95.23c-2.33.73-4.9,1.21-6.55,1.1-.82-.14-.97-.19-1.22-.53-.31-1.03-.37-2.13-.29-3.26,2.48-4.3,5.53-8.42,8.79-11.98,2.07-2.08,4.41-4.58,7.1-4.98.36.04.41-.03.89.39.94.83,1.98,2.97,2.68,5.08,2.33,6.32-5.47,12.35-11.4,14.19ZM117.12,81.48c-1.94.21-2.89-.44-3.93-1.74-1.33-2.88-1.14-6.34-.36-9.77.31.16.62.32.99.42,1.63.26,2.82-.37,3.62-.88,1.79-1.3,3.05-2.78,4.18-4.37.15,2.83.71,5.71,1.79,8.17-.81,3.81-2.67,7.11-6.29,8.16Z"/>
          <g>
            <path class="cls-3" d="M94.25,73.58c-.59.51-1.18,1.05-1.76,1.63-1.2,1.15-2.34,2.34-3.35,3.68-.37.49-.78,1.07-1.2,1.68-.66.9-1.3,1.82-1.91,2.76.24-5.68.21-11.39.17-17.11.73-10.22,1.57-20.43,2.64-30.4.26-2.77.88-8.28,1.09-11.43-.04.02-.1.03-.16.04,0-.03.03-.09.03-.09,0,0,.05-.15.06-.19,0,0,.01,0,.02-.01.03.02.05.03.07.05,0-.03,0-.07,0-.1,6.41-4.21,10.97-9.77,9.72-17.45-.84-4.18-6.3-6.14-9.78-6.03-8.42.01-16.29,3.86-21.8,9.58-5.2,5.53-10.76,12.38-15.33,19.78-1.4.46-2.64.89-3.63,1.27-13.3,4.7-27.98,8.71-39.73,17.22-7.74,5.41-12.14,17.23-5.91,25.23,8.06,10.51,26.41,7.38,32.6-3.01.73-1.06-.93-2.26-1.84-1.26-3.46,3.74-8.32,6.25-13.55,6.5-11.04.49-17.53-8.36-11.58-17.43,2.12-3.55,6.74-6.38,11.45-8.67,8.37-3.89,17.52-6.76,26.74-9.52-5.52,12.67-6.7,25.92,2.41,36.53-9.26.35-17.1,7.42-20.31,15.91-4.28,10.18-3.92,21.3.08,31.18,4.28,11.58,14.05,19.01,27.39,13.61,10.83-3.88,19.09-12.65,23.02-22.62,2.06-4.97,3.44-10.02,4.39-15.14-.07,0-.12,0-.19-.02,0,0,0-.02,0-.03.07,0,.13.01.19.02.03-.15.06-.29.08-.44.19.17.36.36.59.51.27.03.3.04.01.01.92.61,2.11,1.06,3.63,1.3,6.62-.09,10.66-3.81,15.42-7.02,3.23-2.44,6.62-5.37,8-9.13.36.16.7.34,1.12.47,2,.37,3.8-.23,5.19-.91,3.4-1.62,6.13-4.05,8.05-6.93,2.02,1.82,4.75,2.77,8.4,2.14,6.25-1.86,9.89-7.68,11.58-13.03.34-.94-1.16-1.62-1.74-.79-3.24,3.93-5.75,8.95-10.78,10.52-2.49.49-4.33-.53-5.68-2.18,1.34-3.29,1.74-6.93,1.01-10.52-.33-2.11-.89-4.14-1.65-6.14-.05-.16-.19-.66-.58-1.16-.84-.97-1.39-1.06-1.79-1.28-4.91-1.26-10.46.93-13.29,4.84-3.77,2.45-7.81,5.94-11.15,8.31-1.9,1.53-3.85,3.02-5.72,4.6-.07.06-.15.12-.22.18-.18.15-.35.31-.53.47M114.24,66.43c-.1-.25-.16-.49-.2-.73.39-1.18.81-2.29,1.21-3.37,1.39-1.54,3.72-2.66,5.92-2.87-.85,1.6-1.88,3.17-2.92,4.54-.96,1.2-2.36,2.83-3.62,3.02.08,0-.15-.1-.38-.58ZM110.11,64.31c-.04.39-.05.78-.02,1.17-.71,1.65-1.38,3.45-1.89,5.29-1.34-1.03-3.01-1.65-5.08-1.57-.04,0-.08.02-.12.02,2.29-1.76,4.69-3.4,7.11-4.91ZM86.92,23.81s-.02.06-.02.06c-.03.07-.05.15-.07.23-.13-.09-.11-.19.1-.29ZM91.35,9.06s.06.03.06.03c0,.02-.02,0-.06-.03ZM73.32,14.76c4.29-3.72,10.42-6.18,16.22-6.07.58.02,1.1.13,1.45.23-.04,7.78-17.01,14.09-30,18.37,3.84-4.46,8.1-8.63,12.33-12.53ZM54.21,132.57c-6.28,4.23-13.82,2.86-17.07-3.65-3.33-6.12-3.05-13.47-2.32-20.13,1.28-11.81,6.48-28.66,22.61-25.58,2.78.59,4.32-3.16,1.74-4.42-9.25-4.91-13.71-15.67-11.92-25.39.91-5.23,2.91-10.14,5.58-14.78,5.19-1.55,10.36-3.13,15.38-4.89,5.11-1.89,11.89-4.19,17.87-7.37-10.68,34.24,2.86,83.25-31.87,106.21ZM95.57,95.23c-2.33.73-4.9,1.21-6.55,1.1-.82-.14-.97-.19-1.22-.53-.31-1.03-.37-2.13-.29-3.26,2.48-4.3,5.53-8.42,8.79-11.98,2.07-2.08,4.41-4.58,7.1-4.98.36.04.41-.03.89.39.94.83,1.98,2.97,2.68,5.08,2.33,6.32-5.47,12.35-11.4,14.19ZM117.12,81.48c-1.94.21-2.89-.44-3.93-1.74-1.33-2.88-1.14-6.34-.36-9.77.31.16.62.32.99.42,1.63.26,2.82-.37,3.62-.88,1.79-1.3,3.05-2.78,4.18-4.37.15,2.83.71,5.71,1.79,8.17-.81,3.81-2.67,7.11-6.29,8.16Z"/>
            <g>
              <polygon class="cls-2" points="117.31 82.12 117.34 82.15 117.37 82.04 117.31 82.12"/>
              <path class="cls-2" d="M117.6,81.78s-.02-.05-.04-.06l-.12.35c.15.13.07-.38.16-.29Z"/>
              <path class="cls-2" d="M117.68,81.79c.11.04.09-.11.1-.16,0,.11-.16.02-.1.16Z"/>
              <path class="cls-2" d="M122.82,76.53s0,.02,0,.03c0-.01,0-.02,0-.03Z"/>
              <path class="cls-2" d="M123.02,74.58l-.1-.05c.09.39-.21.71-.26,1.08l-.03-.04c-.36.86-.56,1.72-1,2.56,0-.02-.03-.04-.03-.06,0,.06.04.14,0,.18-.03,0-.04-.04-.04-.06-.25.07-.24.55-.43.56-.02.06.03.12.09.13-.42.62-.97,1.22-1.52,1.8-.05,0-.08-.04-.11-.09-.37.64-1.09.88-1.74,1.08,0,.08.1.05.06.15.25.01.3-.34.55-.29v.08c.17-.02-.05-.18.14-.16.08.03.03.09.06.09.26-.18.6-.27.74-.6.15.1.28-.18.47-.12.03-.1.1-.14.06-.25.93-.61,1.55-1.58,2.12-2.5-.02-.6.61-.95.74-1.56.01,0,.02,0,.03.01,0-.21.08-.49.2-.69l-.06-.23c.36-.61.58-1.29.73-1.98.02-.12.08-.25.06-.37l-.14-.33c-.07-.16-.13-.32-.19-.48-.12-.32-.23-.65-.3-.98-.4-1.51-.44-2.87-1.05-4.32.03,0,.05-.02.06.02-.05-.18-.08-.5-.09-.82-.02-.31-.03-.65-.08-.92l.03-.05c-.09-.3-.13-.6-.17-.92-.33.49-.64.9-.97,1.34-.16.21-.31.43-.46.64-.12.17-.21.33-.29.51-.82.9-1.8,1.86-2.81,2.65l-.03-.06c-.83.67-1.89.67-2.85.72-.13-.03-.25-.04-.38-.06-.14,0-.19-.03-.38-.1-.31-.11-.6-.18-.84-.24-.11.65-.1,1.16-.29,1.68-.42.61.13,1.56-.22,2.14-.57,1.25-.21,2.58.31,3.75.04.59.26,1.14.5,1.66l.19.39c.06.15.1.19.2.32.18.22.33.46.48.71.27.1.43.32.64.54.2.22.46.45.78.5v-.08c.17.3.53-.23.62.13h-.02c.11.21.29-.39.35-.17l.02-.09c.13-.02.01.1.12.14.04-.01.01-.16.1-.11.03.36.33-.09.37.31-.08,0,.14.15-.04.25.05.04.3,0,.26-.17,0-.18.07-.35-.08-.48v.13c-.07-.13-.06-.06-.08-.16-.18,0-.22-.19-.34-.27,0,0,0,0,0,.01-.08.16-.2.07-.26.05l-.02-.07c-.03-.16-.2.3-.14.03-.34.05-.72-.01-1.04-.15-.09.07-.25-.12-.26.09.01-.24-.18-.42-.26-.47.02-.01.03-.03.04-.02.03-.34-.35.07-.26-.32-.19.16-.19-.28-.47-.17.02-.06.06-.09.09-.12-.11-.12-.23-.3-.3-.43.03.03-.05-.24-.09-.35-.3-.16-.12-.61-.47-.73,0-.2.05-.51-.12-.74l.04.02c-.09-.28-.15-.63-.38-.81.27-.13.2-.24.28-.38-.16-.18-.15-.58-.29-.87.13-.05-.06-.25.13-.27-.4-.83-.21-1.93.19-2.78h.01c-.09-.12-.3-.28-.42-.42.02,0,.05,0,.05.02-.01-.17.2-.3.19-.47t.06.04c-.06-.17.2-.29.09-.5h.05s-.05-.13-.05-.13c.06.01.16.04.12.09l.06-.27s0-.1.02-.13l.6.12c.83.05,1.64-.1,2.4-.35l-.04.08c.09-.07.17-.14.25-.21.01.03,0,.05,0,.07.42-.05.7-.41,1.03-.58.02.03,0,.11.06.11.16-.3.51-.09.41-.46.02,0,.08.06.07.1.53-.56,1.12-1.07,1.7-1.58.2-.66.92-1.05,1.08-1.66l.03.07c.19-.43.52-.85.73-1.1,0,.41,0,.81.04,1.1,0,.31.1.47.15.86l-.08.02c.38.56-.09,1.33.38,1.9l-.12-.02c.19.06.02.39.3.29l-.06.13c.47.33,0,.81.39,1.27h-.08c.09.11.18.25.15.37-.01-.01-.03,0-.06-.03-.14.51.31.89.47,1.33h-.14c.2.15.28.61.39.81h-.06s.04.07.06.12l-.12-.02c-.09.35-.08.74-.17,1.11Z"/>
              <path class="cls-2" d="M121.56,78.19h0s0-.01,0,0Z"/>
              <path class="cls-2" d="M116.61,80.95s.03.01.04.02c0-.02-.03-.02-.04-.02Z"/>
            </g>
            <g>
              <polygon class="cls-2" points="95.77 95.87 95.81 95.89 95.85 95.77 95.77 95.87"/>
              <path class="cls-2" d="M96.18,95.48s-.02-.04-.04-.06l-.19.38c.18.11.12-.4.24-.32Z"/>
              <path class="cls-2" d="M96.27,95.48c.13.03.13-.12.14-.17,0,.11-.21.04-.14.17Z"/>
              <path class="cls-2" d="M104.76,89.97s-.01.02-.02.03c.02-.01.02-.02.02-.03Z"/>
              <path class="cls-2" d="M105.99,87.59l-.08-.08c-.07.52-.59.84-.81,1.3v-.05c-.87.96-1.59,1.93-2.56,2.82,0-.02,0-.05,0-.08-.02.07-.03.17-.09.21-.03,0-.02-.05,0-.08-.33.02-.58.57-.8.56-.05.06-.03.14.03.17-.81.64-1.73,1.23-2.59,1.85-.06,0-.09-.04-.1-.1-.66.67-1.59.96-2.47,1.23,0,.09.12.05.06.15.32,0,.44-.37.74-.34v.08c.2-.03-.04-.19.19-.18.1.03.02.1.06.09.38-.18.8-.31,1.07-.65.16.1.4-.19.61-.12.07-.1.17-.15.15-.26,1.33-.61,2.49-1.58,3.64-2.52.34-.67,1.19-.97,1.7-1.65.01,0,.02.01.02.02.12-.26.35-.58.59-.8.03-.1.05-.19.07-.29,1.41-1.36,2.18-3.36,2.34-5.38.02-.29-.02-.57-.02-.86,0-.29-.02-.57-.09-.83-.12-.55-.24-1.08-.41-1.55-.34-.98-.8-1.93-1.51-2.79.03-.01.03-.04.07,0-.37-.52-.58-1.08-1.05-1.5l.02-.02c-.16-.12-.33-.25-.49-.35-.15-.1-.4-.25-.64-.25-.09,0-.19-.03-.33,0l-.3.06c-.19.03-.38.09-.56.14-.74.23-1.42.59-1.93,1.09-1.45.91-2.79,2.31-3.99,3.64l-.04-.05c-.89,1.13-2.04,1.96-2.87,3.14-1.05,1.06-1.59,2.6-2.6,3.69-.79.57-.92,1.94-1.65,2.48-.69.61-1.18,1.33-1.59,2.11l-.28.59c-.15.2-.11.5-.08.7.05.44.13.88.24,1.31,0,.4.05.81.16,1.19.05.43.37.59.76.64.75.14,1.55.02,2.35.12.71-.31,1.6.05,2.41-.2l-.05-.07c.35.16.57-.47.84-.18l-.03.02c.2.13.25-.5.4-.32v-.09c.18-.07.05.09.2.09.05-.03-.02-.16.1-.14.12.34.43-.2.56.18-.1.03.2.1,0,.25.08.02.38-.09.3-.25-.03-.18.04-.37-.18-.45v.14c-.1-.11-.07-.05-.12-.14-.25.06-.33-.12-.53-.15,0,0,0,0,0,.01-.07.19-.26.14-.36.15l-.06-.06c-.1-.13-.2.37-.19.09-.48.19-1.05.33-1.6.44-.06.12-.43.07-.27.24-.18-.19-.61-.17-.76-.14,0-.02,0-.05.03-.04-.34-.24-.32.32-.64,0-.02.25-.51-.02-.64.28-.04-.05-.05-.1-.04-.15-.48.03-1.1-.04-1.37-.12-.19.08-.41,0-.46-.04-.04-.04-.04-.04-.19-.02,0-.22.03-.66-.13-.98l.04.03c-.07-.39-.11-.88-.3-1.17.29-.12.23-.29.33-.47-.05-.2-.11-.2-.07-.29.1-.21.21-.44.26-.65.15.01.14-.33.31-.25.3-1.22,1.23-2.42,2.19-3.32v.02c0-.2-.08-.49-.09-.71.02,0,.05.02.03.04.11-.21.39-.28.5-.5t.03.07c.06-.23.39-.28.42-.58l.05.02.04-.18s.12.1.05.16c1.24-1.59,2.28-3.43,3.69-4.96v.1s.18-.37.18-.37c.02.02.02.05.02.07.42-.31.63-.83,1.01-1.16.02.02.01.12.09.1.14-.38.58-.26.45-.65.02,0,.09.05.08.1.64-.81,1.41-1.55,2.24-2.15.46-.8,1.41-1.11,2.09-1.7l.02.06c.47-.34,1.06-.55,1.64-.59.31,0,.53.15.75.37.21.2.4.43.59.66.27.41.51.66.75,1.1l-.07.05c.68.61.52,1.71,1.14,2.4l-.13-.02c.21.07.13.52.38.37l-.03.18c.29.22.31.5.33.8,0,.3.06.6.19.95l-.07-.04c.07.19.13.41.08.56-.01-.02-.03-.01-.05-.06-.09.31-.1.62-.1.94.01.32.07.67-.04.98l-.11-.1c.06.33-.18.86-.3,1.24l-.05-.04v.22s-.11-.04-.11-.04c-.18.49-.36.96-.6,1.42Z"/>
              <path class="cls-2" d="M102.45,91.64h0s0-.01,0,0Z"/>
              <path class="cls-2" d="M94.75,94.89s.05,0,.07,0c-.01-.02-.05,0-.07,0Z"/>
            </g>
            <g>
              <polygon class="cls-2" points="54.58 133.13 54.71 133.08 54.94 132.79 54.58 133.13"/>
              <path class="cls-2" d="M56.32,131.6c-.07.02-.06-.02-.12,0l-.93,1.03c.59-.21.67-.89,1.05-1.03Z"/>
              <path class="cls-2" d="M56.66,131.4c.47-.25.56-.49.63-.59-.08.19-.81.54-.63.59Z"/>
              <path class="cls-2" d="M78.32,92.2s-.01.11-.02.16c.02-.08.02-.13.02-.16Z"/>
              <path class="cls-2" d="M79.46,80.33l-.1-.13c-.02,1.11-.15,2.29-.29,3.48-.17,1.19-.35,2.39-.46,3.56l-.02-.16c-.88,5.89-1.78,11.32-3.48,17,.02-.09,0-.13,0-.23-.05.28-.07.61-.18.91-.05.07-.02-.1,0-.2-.6,1.11-1.08,3.52-1.56,4.17-.12.33-.11.5.02.35-1.7,4.32-4.08,8.73-6.87,12.59-.16.17-.22.17-.24.08-2.24,3.4-5.38,6.39-8.68,8.9-.07.16.38-.21.11.12,1.09-.78,1.76-1.72,2.79-2.39l-.07.16c.68-.56,0-.26.73-.82.3-.21,0,.13.13.02.66-.67,1.37-1.32,2.02-2.01.62-.71,1.22-1.43,1.74-2.15.45-.2,1.26-1.58,1.81-2.03.24-.43.56-.8.58-1.01,1.9-2.67,3.63-5.53,4.99-8.58,1.36-3.05,2.55-6.19,3.46-9.41.59-3.09,1.84-6.64,2.36-10.33.02-.02.03-.02.03,0,.16-1.2.37-2.95.63-4.38.02-.41.03-.82.04-1.23,1.45-8.58,1.72-17.47,2.44-26.24.78-9.98,1.67-18.68,3.41-28.24.03.02.06-.05.02.19.3-1.37.6-2.67,1-3.93.26-.88.51-1.76.77-2.64.02-.05,0-.04-.03-.01l-.08.04-.16.08-.32.17-.65.34-1.16.61v-.03c-2.88,1.57-6.05,2.86-9.22,4.06-1.59.59-3.17,1.18-4.72,1.76-.78.29-1.54.59-2.31.88-.77.27-1.52.54-2.27.81-3.67,1.17-7.59,2.41-11.56,3.67l-.74.24-.38.12-.21.07c-.06.04-.08.12-.12.18-.27.48-.51.92-.76,1.39-.49.93-.96,1.86-1.39,2.82-.86,1.9-1.6,3.85-2.17,5.81l-.05-.04c-.87,3.15-1.56,6.32-1.53,9.56-.01,3.23.69,6.46,2.03,9.46.67,1.55,1.48,3.07,2.54,4.44.49.72,1.1,1.34,1.66,1.99.63.6,1.21,1.24,1.91,1.77,1.3,1.15,2.81,2.03,4.3,2.87.37.21.75.46.97.84.23.37.36.8.34,1.23-.02.43-.16.85-.38,1.22-.24.36-.55.65-.91.86-.97.51-2.08.07-3.24-.05-1.17-.1-2.38-.14-3.56.02-2.39.23-4.58,1.13-6.33,2-1.78.95-3.35,2.3-4.61,3.87-1.27,1.56-2.28,3.32-3.09,5.15-1.62,3.67-2.48,7.6-2.99,11.59-.64,3.66-.95,7.39-.88,11.06.08,3.67.62,7.31,1.89,10.68.8,1.5,1.54,3.14,2.77,4.53,1.19,1.41,2.87,2.53,4.75,2.98l-.11-.11c1.31.62,3.04.15,3.88.37l-.14.03c.37.08.79-.08,1.15-.25.36-.16.68-.31.91-.28l.09-.12c.83-.25.12.07.78-.07.24-.08.04-.18.55-.32.11.14.62-.03,1.09-.29.47-.25.93-.48,1.05-.33-.42.24.74-.24-.18.37.31-.09,1.57-.92,1.36-.98,0-.23.39-.66-.43-.3l-.08.2c-.33.04-.23.06-.37.03-.49.3-.8.4-1.08.47-.28.07-.52.12-.9.25,0,0,.02,0,0,.01-.45.34-1.2.54-1.63.61l-.19-.03c-.28-.05-1.18.56-.9.24-2.21.51-4.95.2-7.14-1.09-.37-.07-1.58-1.12-1.26-.63-.16-.31-.64-.73-1.01-1.25-.42-.48-.76-1.03-.97-1.3.03,0,.07.02.13.11-.49-1.27-1.06-1.25-1.34-2.57-.16-.04-.37-.59-.61-1.2-.2-.62-.44-1.3-.67-1.62,0-.17.04-.23.1-.19-.67-2.24-.85-4.84-.92-6.82-.3-1.7.11-4.12-.07-5.61.15-1.21.46-3.18.57-4.88v.17c.24-1.91.67-4.27.8-5.59.41-.49.56-1.3.87-2.07.21-1.27,1.06-3.71,1.78-5.52.23-.22.65-1.47.87-1.47,1.1-2.47,2.88-5.06,5.38-6.84,2.48-1.82,5.64-2.57,8.48-2.38h-.08c.73-.11,1.61-.26,2.4-.31.07.03.06.06-.1.03.54.06,1.01.18,1.55.3.55.15,1.21.09,1.75-.21,0,.03,0,.03-.17.15.53-.26,1.04-.64,1.4-1.18.36-.53.56-1.25.37-1.95l.03-.09c-.08-.3-.23-.58-.4-.83.07-.02.19-.05.37.44-.24-.7-.81-1.26-1.41-1.56l-1.47-.87c-.95-.62-1.88-1.29-2.74-2.04-1.73-1.5-3.25-3.28-4.48-5.26-2.46-3.95-3.76-8.69-3.55-13.39l.04.35v-1.82s.05.1.06.19c.34-2.28.7-4.7,1.4-6.86.02.02-.01.37.11.07.34-1.66,1.08-2.47,1.06-3.38.04-.07.14-.09.1.08.81-2.18,1.85-4.38,3-6.39.02-.03.03-.08.06-.1l.11-.04.41-.13.86-.27,1.72-.54c1.15-.35,2.29-.7,3.43-1.05,1.84-.76,3.84-1.4,5.85-2.04,1.01-.32,2.03-.63,3.02-.98.99-.38,1.96-.76,2.91-1.18v.07c2.47-1.02,5.04-1.97,7.61-3,1.28-.52,2.57-1.05,3.84-1.63.63-.29,1.26-.59,1.88-.89l.77-.39.39-.2s.03,0,.02.04l-.03.1-.06.21c-.26.86-.54,1.85-.77,2.78-.21.94-.43,1.88-.68,3l-.09.04c-.53,3.85-1.78,7.98-1.92,12.05l-.08-.29c.1.64-.35,2.43-.03,2.22l-.16.7c.11,2.77-.66,4.96-.66,8.34l-.05-.23c-.01.9-.05,1.94-.16,2.6,0-.1-.03-.06-.03-.27-.47,2.78-.37,5.92-.58,8.87l-.11-.34c.06,1.44-.26,4.04-.33,5.92l-.05-.12v.95s-.11.02-.11.02c-.19,2.44-.29,4.74-.51,7.12Z"/>
              <path class="cls-2" d="M74.95,104.55v-.02c.02-.07.01-.04,0,.02Z"/>
              <path class="cls-2" d="M51.21,133.52c.1-.03.19-.05.28-.08-.03-.02-.19.05-.28.08Z"/>
            </g>
            <g>
              <polygon class="cls-2" points="72.87 14.27 72.82 14.26 72.83 14.4 72.87 14.27"/>
              <path class="cls-2" d="M72.59,14.84s.04.03.07.03l.05-.45c-.23-.02.03.43-.12.42Z"/>
              <path class="cls-2" d="M72.5,14.89c-.15.04-.09.18-.08.24-.04-.11.21-.15.08-.24Z"/>
              <path class="cls-2" d="M64.08,23.27s.02-.02.02-.04c-.02.01-.02.03-.02.04Z"/>
              <path class="cls-2" d="M62.38,25.82h.14c.05-.34.72-.78,1.05-1.27v.06c1.08-1.11,1.93-2.27,2.95-3.42,0,.03,0,.05,0,.08.02-.08.03-.19.1-.24.03,0,.02.05,0,.08.36-.1.59-.76.83-.8.05-.08.03-.16-.05-.17.82-.88,1.72-1.81,2.51-2.76.06-.02.1,0,.13.06.55-.94,1.44-1.61,2.26-2.3-.02-.09-.14.01-.11-.12-.32.16-.33.57-.66.68l-.02-.08c-.2.12.1.17-.14.26-.11.02-.05-.09-.08-.06-.33.35-.75.65-.95,1.1-.19-.04-.38.35-.62.36-.05.13-.15.21-.11.32-1.28,1.11-2.41,2.44-3.63,3.67-.34.8-1.29,1.24-1.87,2.02-.01,0-.02-.01-.02-.02-.16.28-.44.64-.73.89l-.12.32c-.23.19-.45.4-.67.6-.27.26-.59.6-.88.92-.6.65-1.22,1.35-1.78,2.01l2.29-.76,1.14-.37.86-.26c2.49-.76,4.72-1.32,6.94-2.61,0,.03.03.04-.02.07.66-.32,1.32-.46,1.94-.78v.03c1.5-.88,3.32-1.33,4.7-2.28,1.83-.82,3.85-1.86,5.63-3.03l.03.06c1.38-.99,2.93-1.65,4.17-2.85,1.43-1.08,2.31-2.81,3.06-4.35.34-.45.41-1.15.34-1.75-.02-.06.03-.17-.06-.18l-.23-.03c-.14-.01-.28-.03-.41-.04-.29-.03-.56-.08-.81-.16-2.11-.5-4.2.09-6.12.92-1.93.33-3.54,1.47-5.34,2.01-.67.61-1.77.67-2.56,1.29l.07.04c-.43,0-.46.71-.84.57l.02-.04c-.26-.03-.1.6-.31.5l.03.09c-.16.16-.08-.06-.24.01-.04.05.08.14-.06.19-.25-.26-.38.41-.65.11.1-.08-.25,0-.09-.24-.09.02-.38.28-.24.39.1.16.09.38.35.33l-.05-.13c.15.05.09.01.17.07.24-.18.4-.05.61-.13,0,0,0,0,0-.01.01-.22.22-.27.33-.32l.08.03c.15.08.09-.44.17-.18.44-.42,1.01-.81,1.57-1.18.03-.14.44-.27.22-.35.26.09.71-.11.88-.21,0,.02,0,.05-.02.05.45.08.24-.44.71-.3-.07-.24.58-.21.62-.55.06.03.1.07.1.12.55-.26,1.19-.46,1.67-.63.32-.38,1.02-.29,1.28-.7.31-.05.84-.07,1.22-.32l-.03.05c.47-.15,1.06-.32,1.35-.58.21.25.4.15.63.2.29-.21.95-.26,1.43-.46.09.12.4-.1.45.09.67-.27,1.47-.38,2.26-.36.41,0,.78.05,1.13.16.07.04.1.07.11.11-.02.06-.07.13-.1.16h-.01c.12-.05.29.3.39.5-.02.02-.05,0-.04-.03,0,.28-.28.46-.33.72-.03-.01-.03-.01-.04-.06.01.27-.33.41-.32.73h-.05s-.01.19-.01.19c-.05-.03-.14-.09-.08-.16-1.08,1.94-2.78,3.82-4.82,5.17l.04-.1-.33.36s0-.05,0-.08c-.56.24-.99.73-1.52,1.01-.01-.03.03-.13-.06-.11-.28.38-.72.16-.73.58-.03,0-.08-.07-.05-.12-.99.71-2.11,1.29-3.24,1.77-.78.75-1.95.96-2.81,1.63l-.02-.06c-1.17.77-2.62,1.1-3.94,1.67-.56.19-.91.41-1.47.63l-.04-.07c-.83.65-2.07.49-2.95,1.16l.03-.13c-.09.22-.62.16-.46.41l-.2-.02c-.54.6-1.28.27-2.03.79l.03-.08c-.2.13-.44.26-.63.25.02-.02,0-.03.05-.07-.39-.01-.75.12-1.11.28-.31.15-.66.34-1.02.46l.2-.21c-.21.15-.45.24-.66.3-.22.06-.39.1-.69.24l.21-.13-.26.14c-.06.03-.05.01-.08.02l.39-.25c.31-.34.37-.58.74-1.02Z"/>
              <path class="cls-2" d="M66.62,21.11h0s0,.02,0,0Z"/>
              <path class="cls-2" d="M74.31,14.68s-.05.02-.07.03c.02.02.05-.02.07-.03Z"/>
            </g>
            <g>
              <polygon class="cls-2" points="90.83 8.65 90.8 8.63 90.87 8.7 90.83 8.65"/>
              <path class="cls-2" d="M90.97,8.84s.04.02.06.03c-.08-.06-.15-.13-.22-.2-.16-.07.26.22.16.17Z"/>
              <path class="cls-2" d="M90.94,8.84c-.07-.01.05.06.09.08-.1-.05.04-.01-.09-.08Z"/>
              <path class="cls-2" d="M91.12,9.38h0s0,0,0,0Z"/>
              <path class="cls-2" d="M91.42,9.02l.07-.09c-.13.15,0,0-.05.06l.03-.03s-.09.11-.15.17c0,0,.03-.03.04-.04-.03.03-.06.07-.07.07.02-.02.03-.04.04-.05.12-.14-.08.09.01-.02-.01.01-.06.07-.1.12-.04.03-.05.07-.17.15.02-.02.05-.05.1-.1-.13.08-.24.02-.26-.08-.03-.11.03-.22.08-.27-.07-.03-.08-.03-.15-.06-.12.04.15.16,0,.2h-.07s.19,0,.09.05c-.06,0-.1.01-.1.01.03.11.04.27.23.23-.12.12.04.06-.05.18.06-.03.04-.02.12-.1-.05.07.06-.05.05-.03.21-.24-.04.05.04-.03l-.02.02c.05-.06.08-.09.05-.06l.09-.1c-.17.22-.04.07-.1.17-.04.07-.13.28.11-.06-.02.03-.02.04-.03.05.04-.05,0,.05.03,0v.03c.06-.11.06-.1.08-.09,0,.01.1.02.1-.13.07,0,.09-.08.07-.1v-.04s-.05,0-.09.02l.06-.03c-.12.06.17-.11.06-.08.08-.13-.28.23-.15.09.08-.13.02-.07-.01.02-.04.08-.04.17,0,.01.05-.24-.01-.29-.03-.23-.02.05,0,.21.07.33-.08-.15.18.19-.03-.09.16.16-.19-.2-.16-.15l.06.05c-.18-.16.25.22-.02-.01h-.01c-.14-.13.32.26.16.12l.07.06s-.08-.07-.1-.09c0,0,.12.1.08.07-.26-.21.04.03-.25-.21,0,0-.12-.1-.19-.15-.02-.01-.02-.02,0,0,.04.03.13.1.29.23.08.06.15.12.21.17l-.1-.08c.1.08.05.04.13.1.01.01.16.14.22.19,0,0,0,0-.01,0-.12-.1-.05-.04-.04-.02l.06.05c.12.1-.23-.19-.03-.02-.05-.04-.06-.03-.07-.02-.07-.07,0,.01-.14-.13.16.16.19.21.18.2.01.01.02.02.03.03.19.22-.19-.19.05.08-.16-.19.04.07-.15-.15.04.04.07.08.09.12,0,.01.03.1.02.12-.13-.17.02.11-.15-.14.03.06.06.18,0,.08l.02.03s-.06,0-.13-.18c.08.28.05.23.07.32-.05-.12-.08-.08-.12-.19.01.13-.02-.05-.01.14-.11-.37-.09-.23-.31-.01h0c.03-.09.12-.31.18-.43,0,.01-.02.04-.02.04.01-.03-.09.13-.08.09t-.03.05c.04-.08-.1.12-.03-.01l-.03.04.04-.06c-.04.05-.07.1-.08.11-.14-.04.09-.3.05-.28l-.05.03.09-.06s-.04.02-.06.03c-.1.04.06-.04.03-.04-.03.01-.09.04-.12.05.16-.07-.21.08.12-.06-.02,0-.09.04-.12.05.05-.03.08-.04.08-.05h0s.3-.11.3-.11h0s0,0,0,0c0,0,0,0,0,0,0,0,0-.02.01-.04,0,0,.01-.02,0,0h0s-.02.02-.01,0c0,0,.01-.02.03-.04,0,.01.04-.05-.01.02l.03-.04c-.07.1.02-.03-.09.14l.05-.07c-.22.32.1-.15-.05.06l.04-.06s-.06.08-.02.03c0,0,.02-.02.03-.04.16-.22-.02.02-.01.01l.08-.1c-.09.12,0,0-.05.06l.04-.05-.05.07.08-.1s-.06.07-.07.09Z"/>
              <path class="cls-2" d="M91.33,9.12h0s0,0,0,0Z"/>
              <path class="cls-2" d="M91.79,9.42l-.02-.02s.01.01.02.02Z"/>
            </g>
            <g>
              <polygon class="cls-2" points="87.36 23.31 87.38 23.28 87.3 23.35 87.36 23.31"/>
              <path class="cls-2" d="M87.15,23.45s-.03.04-.04.06c.06-.08.14-.15.21-.21.08-.15-.24.25-.18.16Z"/>
              <path class="cls-2" d="M87.16,23.42c.02-.07-.06.05-.08.09.06-.09,0,.04.08-.09Z"/>
              <path class="cls-2" d="M86.57,23.56h0s0,0,0,0Z"/>
              <path class="cls-2" d="M86.84,23.95l.08.08c-.13-.15,0,0-.05-.07l.02.03s-.07-.12-.1-.21c0,0,.02.04.03.05-.02-.03-.05-.08-.05-.08.01.02.03.04.03.05.1.15-.05-.1.02.01-.01-.02-.05-.08-.08-.13-.01-.05-.02-.08-.07-.22.02.02.04.06.07.12-.07-.32.28-.25.35-.13.04-.07.02-.08.07-.15-.03-.12-.16.14-.18,0l.02-.07c-.04-.05-.04.19-.07.09-.01-.06.01-.1,0-.1-.09.02-.23-.02-.23.18-.08-.15-.07.02-.15-.11.03.06.02.04.07.14-.07-.06-.01.09-.04.1.17.27-.06-.03-.01.07l-.02-.03c.04.07.06.1.03.07l.08.11c-.21-.18-.12,0-.25-.01-.06.01-.16.04-.19.11-.04.07.01.19.23.21-.03,0-.05,0-.06,0,.07.02-.03.08.04.08h-.03c.26-.05.04.15.28,0,0,.04.05.04.11-.01l-.04.05.13-.04h0s0,0,0,0h0s0,0,0,0c0,0,0,0,0,0,0,0,0,0,0,0,.01,0,.04,0,.06,0,.05.01.11.02.07,0,.14.03-.33-.15-.14-.11.29.09-.33-.14-.02-.04.46.14.17.02-.09-.1.13.03-.08-.06-.04-.06l.18.25s-.01-.06,0-.15c-.06.21.06-.29.08-.22l-.03.07c.12-.21-.15.28.02-.02h0c.1-.16-.22.34-.11.16l-.05.07s.06-.08.08-.11c0,0-.09.13-.07.09.22-.29-.05.05.2-.26,0,0,.11-.12.15-.19.03-.03.03,0-.09.12-.12.14-.23.26-.32.36l.09-.1c-.09.1-.04.05-.11.13,0,.02-.13.17-.17.25,0,0,0,0,0-.01.1-.12.05-.04.04-.02l-.04.06c-.08.13.18-.24.03-.02.06-.03.08,0,.12,0,.04-.09.02.02.07-.17-.07.21-.05.28-.04.28,0,.02-.01.04-.01.03-.03.29.07-.25.03.1.03-.24.03.09.07-.2,0,.06,0,.11,0,.15.01,0,.02.02.03.03l-.59-.83s-.07-.01-.08-.01c.2.08-.1-.02.19.08-.06-.02-.18-.06-.07-.01h-.03s.03,0,.21.08c-.27-.09-.22-.07-.31-.1.12.05.09.04.2.09-.13-.04.05.02-.13-.04.35.14.22.11-.05.03h-.01c.1.03.32.11.45.16-.02,0-.05-.02-.05-.02.03.01-.15-.05-.11-.03t-.06-.02c.08.03-.15-.05,0,0l-.05-.02.07.03c-.06-.02-.11-.04-.13-.05-.07,0,.24.14.19.14l-.06-.02.1.04s-.05-.02-.06-.02c-.05-.01-.04,0-.01,0,.01,0,.03.01.04.02,0,0,.01,0,.01,0h0s0,0,0,0l.46-.15h0s.07-.1.06-.08c-.04.06.02-.03-.06.08,0,0,.03-.04.04-.06-.03.04-.05.07-.08.1-.03.03-.03.03-.03.03,0,0,0,0-.09.07l.05-.04c-.2.13.03-.02-.04.02,0,0-.01,0-.04,0h.03s-.06,0-.04,0c0,0,.05,0,.04,0,0,0,.02,0,0,0,.03,0,0,0,.01,0h0s.02,0-.13-.04l.09.02c-.36-.14.17.06-.06-.05l.06.03s-.08-.05-.03-.02c0,0,.03.02.04.02.05.03.07.04.08.04,0,0,.01,0,0,0-.03-.02-.09-.07-.08-.07l.1.08c-.12-.1,0,0-.06-.06l.04.04-.06-.06.09.08s-.07-.07-.07-.09Z"/>
              <path class="cls-2" d="M86.8,23.8h0s0,0,0,0Z"/>
              <path class="cls-2" d="M86.58,24.27v-.02s0,.02,0,.02Z"/>
            </g>
            <g>
              <polygon class="cls-2" points="109.76 63.74 109.73 63.72 109.76 63.82 109.76 63.74"/>
              <path class="cls-2" d="M109.74,64.03s.03.04.04.05l-.07-.3c-.13-.12.11.33.03.25Z"/>
              <path class="cls-2" d="M109.7,64.02c-.07-.04,0,.09,0,.13-.05-.1.08-.01,0-.13Z"/>
              <path class="cls-2" d="M106.88,65.93s0,0,0-.01c0,0,0,0,0,.01Z"/>
              <path class="cls-2" d="M106.42,66.82l.06.1c.02-.26.29-.2.39-.37v.04c.4-.21.64-.59.96-.91,0,.01.01.04.02.06,0-.04-.02-.12,0-.12.02.02.02.05.02.06.18.1.16-.25.29-.16.01-.03-.02-.1-.07-.14.26-.23.55-.46.77-.77.03.01.06.05.09.11.09-.41.42-.48.71-.6-.03-.07-.07-.05-.09-.14-.14-.03-.05.26-.2.19l-.03-.07c-.08,0,.09.17-.02.12-.06-.04-.05-.08-.06-.08-.1.1-.26.12-.27.35-.12-.12-.13.08-.26-.03,0,.07-.03.08.01.18-.46.19-.78.59-1.21.86-.02.39-.46.23-.63.48,0,0-.01-.02-.02-.03-.03.12-.12.22-.23.25v.16c-.69.14-1.12.67-1.72.96-.35.2-.56.26-1.15.68-.48.34-.96.76-.92.99-.06.01-.11.02-.11.01-.08.14-.62.4-.62.5l-.09.03c.16-.05.22-.02.27,0,.05.03.09.05.09.1l.62-.08.3-.04.23-.02.48-.06c.13-.01.27-.03.39-.07.68.1,1.22.22,1.84.36l-.02.06c.25.03.45.17.63.32.2.17.32.29.62.42.25.24.57.37.74.39.05-.38.03-.67.19-.83.39-.21-.12-.8.28-.98.65-.41.54-1.05.49-1.72.36-.45.15-1.13.69-1.5-.06-.16.06-.26.2-.35.13-.11.21-.3.19-.41h-.08c.24-.09-.33-.22.03-.27h.02c.18-.03-.42-.13-.2-.15h-.09c-.02-.08.1-.02.14-.06-.01-.02-.16-.02-.11-.05.36.02-.07-.17.33-.14,0,.03.16-.04.24.04.04-.02.02-.12-.15-.13-.18-.03-.34-.09-.48-.03l.13.03c-.13.01-.07.01-.17,0-.02.09-.21.08-.29.14,0,0,0,0,.01,0,.16.06.06.11.04.15h-.07c-.16.03.3.13.04.09.06.19.05.4.05.61.1.03,0,.03.18.05-.22.02-.28-.03-.3.06-.02-.01-.04-.02-.03-.03-.31-.01.2.22-.17.18.22.11-.14.14.1.3-.06,0-.1-.03-.14-.05-.07.16-.23.31-.3.45.15.2-.21.26.03.47-.09.06-.26.16-.2.32l-.03-.02c-.04.14-.08.32.06.48-.29-.06-.25.02-.36.05.09.14-.01.31.05.49-.13-.02.01.13-.17.08.21.52-.07.95-.47,1.3h-.01c.08.08.29.21.4.31-.02,0-.05,0-.04-.02.01.09-.17.04-.15.09-.03-.02-.03-.02-.05-.04.06.09-.14-.06-.03.09l-.04-.04.05.09c-.05-.06-.12-.16-.1-.14-.02.02-.02.06-.02.12-.03.01-.08.05-.21.02-.04,0-.2-.06-.32-.12-.13-.06-.26-.11-.38-.18l.05-.04-.18.04s.03-.04.04-.05c-.12-.18-.37-.08-.52-.17.01-.03.06-.08.05-.12-.18.12-.13-.29-.31.03,0-.02.02-.1.04-.12-.39,0-.74-.1-1.1-.23-.14.14-.28.13-.39.11-.12-.01-.19-.03-.49.07l.09-.06c-.28.08-.5.08-.63.06-.08,0-.13-.02-.19-.03-.03,0-.06,0-.1,0,.02-.02.07-.06.09-.08.18-.1.07-.12.19-.21l.18-.03c-.23-.02.06-.15.26-.22.22-.08.34-.1.26-.24l.11.06c-.15-.1.17-.05-.12-.2l.12.02c-.09-.18.07-.23.17-.23.12,0,.25,0,.27-.18l.03.07c.02-.08.06-.16.14-.14,0,.01.01.03.01.05.33.1.34-.28.53-.4l.05.12c0-.19.24-.18.31-.32l.03.05v-.11s.08.1.08.1c.15-.1.23-.28.37-.39Z"/>
              <path class="cls-2" d="M107.86,65.68h0s0,0,0,0Z"/>
              <path class="cls-2" d="M109.55,64.51s.02-.02.03-.02c-.02,0-.02.01-.03.02Z"/>
            </g>
            <g>
              <polygon class="cls-2" points="113.64 66.72 113.61 66.75 113.72 66.73 113.64 66.72"/>
              <path class="cls-2" d="M113.96,66.83s.04-.03.05-.05c-.11.02-.23,0-.33,0-.12.13.36-.05.28.04Z"/>
              <path class="cls-2" d="M113.96,66.89c-.02.1.11.04.15.01-.1.05-.03-.12-.15-.01Z"/>
              <path class="cls-2" d="M117.39,65.6s0,0,0,.02c0,0,0,0,0-.02Z"/>
              <path class="cls-2" d="M117.66,64.59l-.08-.08c.04.26-.24.28-.3.47l-.02-.04c-.34.31-.5.74-.79,1.12,0-.01-.02-.04-.03-.05,0,.04.04.11.01.12-.02-.01-.03-.04-.03-.06-.19-.07-.15.27-.28.21,0,.03.03.1.08.14-.27.27-.55.51-.91.83-.03-.01-.05-.06-.07-.12-.11.16-.29.27-.48.33-.08,0-.15,0-.23,0h-.06s0,0,0,0h0l.16-.45h.01s0-.01,0-.02l-.05-.06-.05-.06s0-.03-.03,0l-.1.12-.1.12s-.07.09-.07.06c-.05-.07-.09-.14-.13-.21-.07.04-.03.1-.12.12.02.11.11.14.19.16.01,0,0,.02.04-.01l.11-.14c.08-.09.14-.18.21-.25.01.01.02.03.05.05h0s.02.01.06.05c.02.02,0,0,0,0l.02.02s0,.01,0,.01h0s0,0,0,0h0l-.2.57h0s0,0,0,0h.1c.07,0,.14.01.2,0,.11-.03.21-.1.3-.21.08.15.25-.06.38.04.04-.09.07-.08.04-.19.58-.18.92-.67,1.33-1.02-.03-.4.44-.34.57-.63,0,0,.02.01.02.02,0-.12.08-.25.18-.31l-.04-.16c.66-.33.96-1,1.45-1.5.52-.59,1.11-1.04,1.17-1.91.03.02.04.02.04.04.06-.22.27-.33.32-.54l.03.02c0-.26.2-.56.38-.87.17-.29.37-.64.27-.76.05-.08.1-.17.15-.27-.48-.02-1.27.17-1.78.39l-.02-.06c-.45.26-1.03.12-1.47.43-.56.09-.8.8-1.33.92-.45-.06-.4.71-.82.66-.41.03-.64.19-.87.52-.08.39-.03.68,0,1.04-.36.49-.14,1.18-.66,1.59.12.33-.44.41-.5.76h.08c-.15.04-.08.13.02.18.08.05.15.08-.01.15h-.02c-.16.1.44.02.25.1h.09s-.09.02-.11.08c.02.02.16-.04.12.01-.34.12.12.13-.26.27-.01-.04-.13.12-.23.06-.03.04.02.16.18.08.17-.06.34-.08.44-.19l-.13.04c.12-.07.06-.04.15-.08,0-.09.17-.16.24-.24,0,0,0,0-.01,0-.16.01-.09-.07-.07-.1l.07-.03c.15-.06-.32,0-.05-.05-.11-.15-.13-.12-.06-.3-.09-.06.06-.14-.14-.17.23.02.33-.1.34-.16.02,0,.04.02.03.02.31,0-.21-.21.16-.19-.23-.1.14-.15-.12-.3.06,0,.1.02.15.04.07-.17.22-.33.28-.48-.16-.2.2-.27-.04-.48.09-.07.26-.17.19-.34l.03.02c.03-.15.08-.33-.06-.49.29.06.25-.02.36-.05-.1-.12.03-.37-.08-.41.11.07-.02-.06.13.06-.02-.53.49-.81,1-.82h0c-.02-.1-.1-.33-.13-.48.01.01.03.04.02.04.05-.08.22.04.26-.04t.02.06c.01-.12.21.05.21-.13l.03.04v-.09c.04.05.09.14.05.14.6-.3,1.1-.91,1.8-1.11v.07s.09-.15.09-.15c0,.03,0,.05,0,.06.2.05.32-.18.5-.2,0,.03,0,.1.03.12.07-.2.09.21.13-.17,0,.02,0,.1-.01.13.16-.16.45-.22.53-.15.16-.11.36-.21.38-.2.02.1-.22.31-.04.37l-.09.03c.08.1-.05.31-.17.47-.12.15-.28.32-.37.51-.12.14-.11.28-.21.43l-.07-.04c.1.42-.58.38-.47.82l-.08-.08c.11.14-.16.12.1.27h-.1c.2.39-.37.21-.31.57l-.05-.05c0,.09,0,.18-.09.18,0-.01-.02-.02-.03-.05-.35.01-.25.39-.39.57l-.09-.1c.06.18-.18.26-.22.41l-.04-.05.02.11-.1-.08c-.13.14-.16.35-.27.5Z"/>
              <path class="cls-2" d="M116.43,66.07h0s0,0,0,0Z"/>
              <path class="cls-2" d="M114.71,66.02s-.01.02-.02.03c.02,0,.02-.02.02-.03Z"/>
            </g>
            <g>
              <path class="cls-2" d="M94.69,74.08l.27-.19c.19-.22.38-.42.58-.63-.3.26-.57.54-.85.81Z"/>
              <path class="cls-2" d="M98.91,70.35c-.14.09-.1.01-.24.1l-2.4,2.31c1.26-.79,1.81-1.89,2.64-2.41Z"/>
              <path class="cls-2" d="M99.68,69.77c1.04-.75,1.37-1.2,1.59-1.4-.31.33-1.9,1.46-1.59,1.4Z"/>
              <path class="cls-2" d="M118.24,84.15c.1-.05.24-.13.35-.18-.18.08-.29.15-.35.18Z"/>
              <path class="cls-2" d="M95.08,99.82l-.25.22c2.56-1.13,4.97-2.84,7.4-4.55l1.84-1.27c.6-.45,1.2-.91,1.78-1.38,1.16-.95,2.27-1.95,3.24-3.05l-.24.32c1.27-1.33,2.41-2.91,3.1-4.53l.1-.26.05-.13c.01-.05.07.02.11.02l.52.22c.41.23.92.23,1.36.27.92.04,1.84-.11,2.71-.39,3.41-1.24,6.39-3.45,8.6-6.24.27-.34.56-.73.77-1.05l.17-.25s.03-.05.04-.06l.06.05.12.1c.16.14.31.25.49.39.72.53,1.53.94,2.37,1.23,1.7.57,3.54.6,5.3.29,3.44-1.02,6.38-3.46,8.4-6.49-.12.19-.13.28-.26.48.38-.6.75-1.29,1.16-1.97.13-.16-.07.22-.19.44.65-.93,1.35-2.29,1.91-3.75.13-.37.28-.74.39-1.11.09-.37.32-.75.21-1.1-.27-.7-1.33-.82-1.65-.27h0s0,0,0,0c-.62.77-1.12,1.42-1.46,1.82-.51.71-.67,1.07-.34.71-1.7,2.3-3.38,4.79-5.84,6.57-.6.45-1.26.83-1.95,1.14-.34.18-.71.28-1.06.42-.41.13-.77.15-1.17.18-1.56.1-3.14-.56-4.25-1.64-.15-.14-.26-.26-.42-.43l-.25-.3c-.03-.05-.11-.09-.1-.15l.07-.18.23-.62.18-.52c.22-.7.41-1.42.55-2.14.29-1.44.37-2.92.3-4.38-.25-2.91-.93-5.82-1.98-8.51-.17-.57-.14-.62-.04-.52-.97-2.31-3.94-2.32-6.3-2.08-2.44.32-4.82,1.34-6.72,2.94-.48.4-.91.84-1.33,1.3l-.29.36c-.12.14-.13.19-.36.44l-.86.57c-1.06.72-2.1,1.47-3.13,2.24-2.06,1.54-4.07,3.15-6.15,4.68-.27.3.89-.56.13.11,2.71-1.91,4.65-3.88,7.13-5.53l-.26.29c1.77-1.23.23-.43,2.12-1.63.76-.45-.13.2.21-.02l.71-.48c.19-.08.41-.4.45-.45l.25-.33c.35-.42.73-.83,1.15-1.2.83-.74,1.77-1.37,2.76-1.87,1.99-1,4.19-1.5,6.28-1.45.26.04.67.11,1.19.2.25.06.52.12.8.18,0-.01.25.12.36.16.13.06.25.12.37.2.23.14.45.34.66.55.21.21.33.4.45.65.06.12.1.24.14.36.04.14.09.28.13.41.09.26.15.49.2.7.45,1.09.74,2.23.95,2.64.17.69.31,1.38.43,2.08.12.73.26,1.41.32,2.11.14,1.4.11,2.82-.09,4.22-.1.7-.24,1.39-.42,2.08-.09.34-.19.68-.3,1.02l-.17.5c-.06.18-.11.28-.24.62l-.08.22c0,.07-.11.15-.02.21l.3.35c.11.13.19.22.25.28.07.07.13.14.2.21.28.27.58.52.9.76.65.45,1.39.79,2.18.94.79.16,1.59.13,2.36,0,.47-.12.75-.26,1.13-.39.34-.17.7-.32,1.03-.51,1.34-.75,2.5-1.75,3.52-2.84,2.04-2.21,3.59-4.74,5.44-6.99l.02-.03c.09-.12.22-.19.4-.19.18,0,.38.08.49.21.12.13.14.22.09.39l-.28.83c-.39,1.1-.85,2.18-1.37,3.22-1.07,2.07-2.43,4.01-4.16,5.56-1.34,1.34-3.04,2.46-5,3.12-1.91.54-4.2.46-6.15-.39-.49-.21-.96-.48-1.41-.79-.24-.16-.38-.27-.76-.58l-.48-.41c-.04-.06-.07-.02-.1.03l-.09.13-.18.26c-.11.16-.25.37-.35.49l-.25.33-.53.65c-.36.43-.74.84-1.14,1.23-1.59,1.59-3.46,2.9-5.49,3.9-.06.02-.06,0,0-.03-1.28.69-3.03,1.3-4.86,1.02-.2,0-.38-.13-.63-.22l-.47-.2-.24-.1-.12-.05s-.04-.03-.06-.02l-.02.06-.38.93-.31.63c-.43.83-.96,1.6-1.51,2.28-.58.81-1.23,1.57-1.93,2.3-.8.74-1.63,1.44-2.5,2.12l-1.3.99-1.36.93c-1.82,1.25-3.6,2.55-5.51,3.61-.96.53-1.94.99-2.97,1.37-1.03.36-2.08.63-3.15.81-.54.06-1.08.15-1.62.15-.25,0-.6.05-.76.01-.27-.05-.53-.1-.79-.16-.52-.13-1.04-.29-1.53-.51-.24-.11-.48-.23-.71-.36l-.3-.19h.05s.03,0,.03,0h.01s0,0,0,0c0-.02,0,.05,0-.05-.02-.01-.08-.02-.08-.02l-.13-.02-.51-.44-.46-.4-.11.59-.08.44.37-.28-.19-.02-.27-.03-.1.29v.02s-.14.39-.14.39l.44.04.19.02-.31-.41c-1.12,6.06-2.88,12.04-5.51,17.64-2.67,5.56-6.65,10.5-11.55,14.22-2.44,1.87-5.07,3.42-7.81,4.62-2.77,1.15-5.56,2.19-8.44,2.5-2.87.34-5.78.02-8.42-1.01-2.64-1.03-4.99-2.73-6.88-4.83-3.82-4.21-5.93-9.74-7.39-15.29-1.36-5.6-1.67-11.57-.53-17.48.02.04.08-.15-.04.46,1.38-6.76,4-12.85,8.74-17.35v.04c2.88-2.81,6.57-4.98,10.65-5.8l.77-.14c.26-.04.49-.1.84-.12l.98-.08.49-.04c.14-.02.44.02.21-.17l-1.22-1.54c-.33-.4-.65-.82-.92-1.27l-.86-1.31c-.27-.45-.5-.92-.75-1.38-.53-.9-.88-1.9-1.3-2.85-1.44-3.92-1.99-8.14-1.69-12.22.27-4.09,1.17-8.07,2.43-11.79.21-.56.41-1.13.62-1.69.24-.59.48-1.17.73-1.77l.2-.49.1-.24.05-.12s.07-.11,0-.07l-.99.3c-.62.19-1.24.38-1.87.56-2.36.72-4.75,1.46-7.15,2.24-4.8,1.56-9.65,3.29-14.4,5.36-2.38,1.02-4.72,2.17-6.95,3.52-2.22,1.35-4.36,2.9-6.03,4.91-1.57,2.06-2.85,4.43-3.15,7.01-.33,2.55.33,5.25,1.96,7.22h-.08c1.26,1.62,2.99,2.81,4.85,3.58,1.87.8,3.9,1.1,5.9,1.14,4.03.13,8.02-1.2,11.32-3.46.83-.56,1.61-1.2,2.36-1.87.77-.57,1.34-1.8,2.25-1.34.4.17.7.6.59,1-.03.19-.2.38-.34.59l-.43.61c-.3.39-.53.84-.89,1.19l-1.01,1.09c-.32.38-.73.67-1.1.99-.39.31-.74.66-1.16.93-.84.53-1.63,1.15-2.54,1.56l-1.33.68-1.39.55c-.91.41-1.91.6-2.87.9-2.02.39-4.1.69-6.19.55-1.05.01-2.08-.2-3.12-.34-.52-.07-1.02-.26-1.53-.38-.5-.14-1.02-.25-1.5-.48l-1.46-.61c-.48-.22-.92-.52-1.38-.78-.95-.47-1.7-1.24-2.55-1.88-.38-.37-.72-.78-1.08-1.16-.37-.39-.73-.78-1.01-1.23-.64-.85-1.13-1.8-1.56-2.77-1.67-3.97-1.24-8.58.36-12.5,1.59-3.98,4.44-7.39,7.95-9.69,4.32-2.88,9.59-5.79,15.03-8.17,5.43-2.41,10.96-4.37,15.63-5.79,2.39-.75,4.78-1.5,7.14-2.28l3.54-1.18.88-.3.45-.15c.09-.04.2-.05.27-.11l.16-.25,1.01-1.56c2.72-4.14,5.67-8.09,8.81-11.9,1.57-1.9,3.18-3.77,4.85-5.59,1.65-1.83,3.51-3.47,5.55-4.87,4.05-2.83,8.82-4.73,13.83-5.32.76-.07,1.53-.12,2.29-.12.76-.03,1.54-.01,2.3.11,1.52.22,3,.7,4.35,1.45,1.34.74,2.55,1.8,3.25,3.19.36.69.52,1.47.58,2.22.06.38.09.76.09,1.14,0,.38.04.77,0,1.15-.07,3.08-1.33,6.04-3.17,8.45-1.84,2.44-4.24,4.37-6.74,6.04l.09-.15v.1s-.03.37-.03.37l-.29-.23-.05-.04h.2s-.03.01-.03.01l.08-.11-.08.28-.22-.24.12-.03.29-.07-.02.26c-.56,5.97-1.17,11.89-1.77,17.74-.26,4.24-.71,8.68-1.2,13.24-.24,2.28-.48,4.59-.73,6.92-.11,1.16-.23,2.33-.34,3.51-.08,1.2-.05,2.36-.07,3.55l.08-.34c-.27,3.39.26,7.56-.12,9.67v-.36c-.11.9-.02,1.94.08,2.9.04.38.08.75.11,1.07.01.14.01.28,0,.43v.12s-.01.06-.01.06c0,0,.01-.01.02-.02.03-.03.06-.05.08-.06l.2-.44c.46-.69.49-.69.51-.66.02.03-.02.16.46-.5.35-.52,0-.29.81-1.34.24,0,.95-1.13,1.8-2.13.84-1.01,1.77-1.93,1.96-1.84-.83.83,1.42-1.2-.39.74.53-.54,3.18-2.99,2.83-2.9.12-.33,1.08-1.4-.67-.04l-.24.4c-.64.41-.46.34-.73.45-1.07.98-1.68,1.54-2.22,2.03-.54.49-1.01.91-1.69,1.73.02-.01.03-.03.02,0-.37.62-.84,1.33-1.32,1.99-.22.3-.44.6-.63.88-.07.09-.14.17-.19.23-.03,0-.04-.03-.05-.06,0-.07-.02-.03-.07.05-.02,0-.05,0-.08-.04-.06-.09-.11-.25.03-.2,0-2.8.02-5.8.03-8.88.01-1.62.03-3.27.04-4.92v-1.2s.12-1.23.12-1.23c.07-.82.14-1.64.21-2.46-.02-.92.44-5.01.13-3.59.36-1.62.84-6.49.99-8.3.01.07.03.15,0,.43.59-3.48.1-4.18.73-7.44-.2-.54.6-5.96.47-7.85.09-.4.16-.53.19-.38.38-3.71.78-7.66,1.11-10.95l-.8-.37-.1-.23-.02-.06h0s0,0,0,0h0s-.01,0-.01,0l.76.85c.03-.11.07-.22.09-.28l-.29.38s.03-.02.04-.03l-.71.02s-.01,0-.01,0l1.09-.48s0-.08,0-.1l-.3.52c1.99-1.3,3.48-2.49,4.74-3.69.76-.8,1.56-1.73,2.33-2.75.74-1.04,1.45-2.17,1.97-3.39,1.05-2.43,1.32-5.08.97-6.96-.04-.4-.08-.82-.12-1.27-.1-.47-.23-.97-.45-1.45-.43-.97-1.16-1.87-2.06-2.6-1.8-1.46-4.16-2.27-6.39-2.45l.44.02c-.62-.1-1.29-.12-1.95-.1-.64.03-1.29.02-1.95.09-1.32.1-2.64.31-3.89.59-2.52.54-4.73,1.46-6.21,2.23-1.44.34-3.3,1.39-5.1,2.52-1.32.99-3.27,2.53-5.1,4.5-1.8,1.95-3.68,4.11-5.21,6.05-.6.49-2.52,3.19-2.82,3.28-2.05,2.78-4.14,5.79-6.16,8.99l-.75,1.21c-.12.19-.05.14-.31.23l-.67.24c-.9.32-1.81.64-2.72.96-1.81.64-3.65,1.27-5.5,1.89-7.4,2.48-14.98,4.91-21.75,7.89l.19-.1c-1.71.89-3.58,2.09-5.22,3.14-.18.07-.17.04.19-.15-2.34,1.33-4.62,2.44-6.8,4.04t.34-.31c-1.01.75-2.13,1.47-3.17,2.4-.26.23-.52.46-.79.7-.25.25-.49.52-.73.79-.51.52-.94,1.13-1.37,1.75l-.14.1c-.37.53-.67,1.1-1,1.65-.03-.07-.07-.18.51-1.04-1.64,2.45-2.85,5.23-3.38,8.17-.49,2.94-.27,6.07.88,8.89.35.67.64,1.38,1.06,2.01.44.61.81,1.29,1.36,1.82l.76.84c.25.28.5.57.81.79.6.46,1.15.99,1.79,1.4,2.51,1.71,5.48,2.66,8.47,2.94,5.98.56,12.17-1.2,16.88-4.96,1.18-.94,2.23-2.04,3.14-3.24l.64-.93.32-.46c.11-.17.24-.4.25-.66.05-1.08-1.05-1.77-1.98-1.46-.24.07-.43.22-.59.39l-.38.4c-.25.27-.52.51-.78.76-.53.5-1.1.96-1.68,1.4-1.17.87-2.43,1.61-3.76,2.2.25-.14.5-.27.74-.42-1.32.71-2.73,1.26-4.19,1.64.02-.04.22-.1.43-.17-2.78.67-5.77.73-8.59.09-2.83-.6-5.42-2.2-7.02-4.47.04,0,.61.61.16,0-1.25-1.61-1.56-3.31-1.61-4.65,0-.34-.04-.67-.01-.98.03-.31.06-.61.09-.9,0-.58.16-1.1.19-1.62.06-.18.17-.28.1.13.12-.7.47-1.34.71-2.01.29-.65.69-1.26,1.03-1.9.74-1.23,1.71-2.31,2.8-3.27,2.19-1.93,4.77-3.43,7.4-4.77,5.32-2.6,10.94-4.65,16.54-6.48,2.31-.85,4.71-1.66,7.16-2.43,1.12-.35,2.25-.7,3.38-1.05.39-.2.1.19.05.37l-.28.69c-.26.6-.49,1.22-.71,1.84-.93,2.47-1.68,5.02-2.17,7.61-.49,2.58-.78,5.2-.66,7.77l-.06-.05c.08,3.32.67,6.69,1.92,9.85.63,1.58,1.38,3.12,2.3,4.56.48.71.9,1.46,1.46,2.12l.75.97.18.23.09.12s-.08.02-.11.03l-.61.05c-.78.03-1.65.2-2.5.34-.84.22-1.69.4-2.49.71-1.64.56-3.2,1.34-4.65,2.3-1.45.94-2.81,2.04-4.01,3.28-1.22,1.23-2.32,2.57-3.25,4.02-.81,1.18-1.41,2.35-1.96,3.49-.51,1.15-.93,2.27-1.36,3.39-.8,2.26-1.43,4.58-1.88,7.41l-.1.13c-.59,4.79-.52,9.92.51,14.95.51,2.51,1.26,5,2.23,7.37.89,2.41,2.13,4.69,3.65,6.7l-.49-.51c.26.3.61.76.98,1.27.41.49.86,1.02,1.26,1.5.87.91,1.6,1.57,1.48,1.26.39.44.87.8,1.3,1.21,2.8,1.96,5.76,3.11,9.03,3.5,3.26.38,6.87-.11,10.69-1.84l-.49.26c2.08-.8,4.39-1.98,5.86-2.73-.22.13-.11.09-.56.36,3.15-1.53,6.13-3.8,8.78-6.44,2.62-2.68,4.89-5.74,6.68-8.95-.1.26-.19.54-.3.79,1.76-3.11,4.31-9.15,5.45-13.7l-.02.29c.19-.77.36-1.54.53-2.31l.13-.03c.43-1.72.78-3.43,1.08-5.06l.03-.18h-.18c-.07-.02-.13-.03-.19-.03l.15.21v-.03s-.17.13-.17.13c.06,0,.13.01.19.02h.15s.03-.14.03-.14c.03-.15.05-.3.08-.44l-.27.09c.22.18.43.37.64.54l.21.02c.06.02-.03-.03-.06,0l-.1-.02s-.09-.03-.06-.01l.09.06.15.09c.2.12.41.23.62.33.42.2.86.36,1.3.49.44.13.89.23,1.35.3.49.06.92-.03,1.39-.04,1.82-.16,3.59-.64,5.28-1.36Z"/>
              <path class="cls-2" d="M143.84,72.2s-.03.04-.04.05c-.08.16-.04.08.04-.05Z"/>
              <path class="cls-2" d="M88.41,78.94c.17-.23.31-.41.47-.59-.06.03-.32.4-.47.59Z"/>
            </g>
          </g>
        </g>
      </g>
      <g>
        <g>
          <polygon class="cls-4" points="97.42 107.83 97.21 107.96 97.87 108.2 97.42 107.83"/>
          <path class="cls-4" d="M99.04,109.6c.1-.07.29-.07.4-.14l-1.91-.93c-.94.63,2.14.66,1.51,1.06Z"/>
          <path class="cls-4" d="M98.9,109.96c-.36.49.5.56.79.62-.66-.06.09-.83-.79-.62Z"/>
          <path class="cls-4" d="M125.4,134.24s-.09.03-.13.06c.07.02.12,0,.13-.06Z"/>
          <path class="cls-4" d="M134.21,129.06l-.21-.64c-.51.89-1.38,1.29-2.3,1.5-.45.14-.92.18-1.38.28-.45.11-.89.24-1.33.44l.08-.25c-2.33.38-4.52.8-6.79,1.13-2.26.36-4.62.39-7.03-.1.09-.04.18-.22.28-.27-.29.14-.68.46-.91.31-.01-.16.18-.26.28-.3-.29-.69-1.04-.74-1.75-.92-.71-.14-1.44-.23-1.49-.77-.29-.07-.65.24-.71.63-.83-.54-1.78-1-2.53-1.7-.4-.33-.81-.66-1.21-1-.4-.34-.73-.75-1.1-1.12l-1.1-1.16-.97-1.25c-.33-.42-.68-.83-1-1.25-.3-.44-.6-.87-.89-1.3.06-.24.32-.39.69-.5-.38-.31-.72-.64-1.04-.99-.32-.35-.53-.74-.76-1.14-.44-.79-.78-1.64-1.05-2.5-.19-.87-.32-1.76-.43-2.64l-.15-1.32-.05-1.31c-.48-.07-.45.43-.97.16-.47,1.23,1.46,1.85.84,3.02l-.47-.04c-.13.81,1.15-.09.74.8-.3.39-.58.05-.58.2.44,1.53.7,3.33,2.17,4.43-.84.71.65,1.64.03,2.59.53.24.62.68,1.27.55,1.13,2.69,2.9,5.3,5.43,7.18,2.48,1.91,5.4,3.13,8.31,3.89.81-.32,1.54-.32,2.28-.3.74.01,1.48.22,2.24.39.76.14,1.55.34,2.36.43.79.05,1.61.03,2.39-.19.03.06.03.14.02.19.99-.61,2.42-.98,3.65-1.01l.84-.98c1.89,0,3.8-.44,5.56-1.16,1.74-.76,3.39-1.73,4.88-2.88,3.02-2.27,5.49-5.05,8.08-7.71,2.82-3.13,5.3-6.25,7.23-9.67,1.91-3.42,3.23-7.15,3.38-11.35.17.07.29.04.29.27.42-2.3,1.67-4.13,1.86-6.35l.18.05c-.09-2.83.58-5.52,1.04-8.27.47-2.73.8-5.5.09-8.13.27-3.12.29-6.47-.05-9.84-.33-3.37-.97-6.74-1.79-9.93l.37-.05c-.89-2.52-1.12-5.11-1.48-7.71-.35-2.6-.77-5.23-1.95-7.63-.51-2.73-2.07-5.17-3.74-7.48-1.66-2.32-3.38-4.5-4.36-7.1-.14-1.92-1.71-3.3-3.33-4.45-.78-.61-1.63-1.13-2.26-1.77-.68-.6-1.16-1.31-1.4-2.19-1.32-3.28-3.98-5.69-7.19-6.83-3.19-1.2-6.82-1.07-9.85-.03-1.45-.21-2.91.08-4.28.55-1.35.53-2.62,1.24-3.76,2.09-2.33,1.68-4.26,3.59-6.91,5.09-.36,1.47-1.52,2.31-2.8,3.26-1.27.93-2.64,1.96-3.2,3.44l.46.12c-.88.16-.74.95-.62,1.63.13.69.21,1.28-.89,1.16l-.04-.15c-1.24.11,1.74,2.25.45,2.07l.45.29c-.12.7-.58-.16-.99.26-.02.21.86.43.42.71-2.07-.71-.16,1.76-2.46.96.14-.37-1.1.26-1.27-.75-.32.15-.64,1.35.38,1.58,1,.46,1.75,1.2,2.79.81l-.7-.4c.83.04.44-.04,1.03.08.42-.83,1.54-.53,2.21-.96-.02,0-.05,0-.08-.03-.73-.76.04-1.11.29-1.38l.46.04c.93.18-1.28-1.65.08-.77.38-1.8,1.28-3.69,2.31-5.4-.39-.56.85-1.28-.38-1.53,1.41.27,2.47-.76,2.76-1.2.09.09.19.19.1.23,1,.09.85-.38.75-.84-.09-.44-.13-.87.98-.56-.52-.53-.17-.81.23-1.1.39-.3.78-.64.34-1.45.32.14.56.32.72.54,1.23-1.19,2.98-1.9,4.11-2.57.14-.81.82-1.12,1.46-1.29.32-.1.62-.22.86-.44.25-.19.43-.49.51-1,.94.03,2.3.49,3.27-.39l-.08.24c1.23-.26,2.73-.37,3.8-1.34.17,1.73.73,1.52,1.14,2.16.49-.33,1.14-.25,1.86-.18.71.13,1.48.28,2.26.27-.08.41.21.44.47.53.25.1.47.23.22.75,2.21-.07,4.38,1.05,6.02,2.75,1.65,1.7,2.81,3.94,3.45,6.2h-.1c.86.05,2.37-.21,3.4-.19-.05.11-.21.21-.28.1.69.56.15,1.87.79,2.44q-.17.1-.39.08c.88.38.05,1.85,1.3,2.17l-.24.2.66.3c-.34.18-.85.44-.89.11,1.6,3.16,3.49,6.26,5.22,9.56,1.72,3.29,3.26,6.78,4.03,10.47l-.42-.18c.33.42.67.83.98,1.26-.19.04-.3,0-.4-.06-.12.98.2,1.87.57,2.75.34.89.75,1.76.84,2.67-.18.02-.6-.18-.76.11,1.25,1.15-.99,2.33,1.26,2.65-.09.08-.56.19-.76.08,1.29,3.58,1.6,7.39,1.28,11.12.52.77.74,1.58.87,2.4.13.82.11,1.66.05,2.5-.08,1.68-.3,3.35.29,5.07l-.39-.06c.42,2.19.07,4.39-.55,6.53-.29,1.07-.65,2.13-.99,3.19-.32,1.06-.68,2.11-.9,3.2-.68,1.7-.59,3.03-1.21,4.78l-.47-.12c.19.89.02,1.68-.32,2.42-.33.74-.82,1.43-1.34,2.1-1.01,1.36-2.04,2.66-1.87,4.56l-.49-.5c.68.92-1.22,1.55.41,2.21l-.74.25c.46,1.52-.26,2.31-1.16,3.01-.44.36-.91.71-1.28,1.17-.39.45-.68.99-.75,1.77l-.24-.39c-.12.79-.44,1.61-1.06,1.81,0-.1-.12-.15-.11-.35-1.32.42-2.02,1.32-2.58,2.41-.6,1.04-1.08,2.26-1.95,3.07l-.37-.74c-.12,1.48-2.26,2.27-3.14,3.51l-.16-.34c-.08.29-.17.59-.27.87l-.47-.57c-1.53,1.12-2.71,2.6-4.37,3.54Z"/>
          <path class="cls-4" d="M114.89,131.17s.01.01.01.03c.08-.04.05-.04-.01-.03Z"/>
          <path class="cls-4" d="M105.96,33.7c-.07.06-.14.11-.22.16.15.04.16-.1.22-.16Z"/>
        </g>
        <g>
          <polygon class="cls-4" points="110.11 105.44 110.14 105.5 110.19 105.64 110.11 105.44"/>
          <path class="cls-4" d="M110.52,106.36s0-.02,0-.05c-.1-.17-.18-.35-.26-.53.08.26.21.41.27.57Z"/>
          <path class="cls-4" d="M110.59,106.52c.08.22.15.29.18.33-.06-.06-.17-.39-.18-.33Z"/>
          <path class="cls-4" d="M125.28,119.74s-.05,0-.08.02c.04.01.06,0,.08-.02Z"/>
          <path class="cls-4" d="M130.21,117.28l-.09-.31c-.29.49-.78.66-1.28.81-.49.17-1.01.21-1.48.44l.04-.12c-.62.17-1.24.19-1.84.31-.61.05-1.23.09-1.85.08-.61-.08-1.26-.05-1.86-.25-.31-.08-.62-.16-.93-.25-.31-.09-.6-.25-.9-.38.05,0,.09-.05.14-.06-.15,0-.34.06-.45-.02,0-.06.08-.07.14-.07-.33-.52-1.48-.7-1.62-1.12-.15-.06-.28,0-.28.14-1.65-1.26-3.21-2.87-4.45-4.57-.03-.1,0-.15.07-.16-.65-.63-1.11-1.44-1.54-2.25-.22-.41-.43-.81-.64-1.23-.19-.42-.37-.84-.56-1.26-.05-.05.05.18-.04.03.2.56.49.95.67,1.47l-.07-.04c.15.36.12.02.26.4.04.16-.07,0-.04.06.4.72.73,1.54,1.26,2.12-.02.25.48.75.52,1.11.17.14.27.34.41.33,1.55,2.49,3.8,4.66,6.6,6.1.4,0,.79.06,1.16.19.19.06.37.13.56.22.19.06.39.13.59.2.4.13.81.32,1.24.4.43.07.88.11,1.33.08.01.03.01.06,0,.08.57-.21,1.39-.34,2.07-.38l.48-.47c2.04-.09,3.99-.96,5.67-2.07,1.71-1.12,3.15-2.52,4.7-3.8,3.34-3.05,6.48-5.9,7.37-10.47.1.06.17.07.16.19.43-1.2,1.38-1.99,1.7-3.17l.11.06c.23-1.54.92-2.89,1.54-4.29.63-1.39,1.1-2.89.93-4.39.97-3.29,1.49-7.14,1.54-10.75l.24.03c-.21-2.9,1.26-5.6.92-8.52.29-1.48-.05-3.02-.4-4.53-.16-.76-.34-1.51-.44-2.27-.09-.75-.12-1.5-.02-2.26.46-.96.04-2.01-.36-3.01-.38-1.02-.81-1.98-.44-2.92.22-.94.23-1.85.16-2.74-.13-.88-.34-1.75-.66-2.58-.67-1.66-1.58-3.22-2.61-4.68-.46-1.58-1.44-2.92-2.44-4.15-.54-.58-1.03-1.21-1.62-1.73-.53-.59-1.15-1.06-1.74-1.6-.34-.15-.71-.27-1.05-.46-.34-.19-.68-.42-1.06-.55-.38-.16-.76-.31-1.16-.45-.41-.09-.83-.13-1.25-.17l.05.06c-.59-.25-1.34.14-1.71-.04h.06c-.32-.07-.73.2-.93.11l-.05.03c-.38.05-.05-.03-.34,0-.11.02-.04.05-.27.07-.06-.07-.93.15-.96.11.21-.05-.33.06.13-.06-.12.03-.54.13-.7.17-.05.02-.3.06.08-.01h.08c.13-.03.1-.03.15-.03.51-.07.58-.04.95-.06,0,0,0,0,0,0,.24-.06.59-.07.79-.08l.08.02c.12.07.57-.09.42,0,.51.02,1.06,0,1.62.05.55.1,1.11.2,1.67.31.17-.03.81.29.63.03.22.3.98.6,1.23.79-.02.02-.04.03-.08,0,.36.6.75.05,1.03.7.25-.24.71.71,1.19.55,0,.11-.02.18-.08.21.73.66,1.35,1.56,1.78,2.26.78.29.73,1.56,1.56,1.74.14.53.23,1.4.77,1.93l-.1-.03c.31.75.74,1.66,1.33,2.04-.58.48-.35.77-.47,1.18.5.4.64,1.51,1.17,2.24-.31.22.3.64-.21.82,1.52,2.04,1.67,5.12.9,7.73l-.05-.03c.37.29,1.17.59,1.65.89-.05.04-.16.04-.16-.03.15.46-.46.95-.31,1.41q-.11,0-.22-.06c.32.42-.47.94.06,1.42l-.17.04.26.31c-.22,0-.55.01-.49-.17-.13,3.97,1.01,8.13.51,12.27l-.22-.17.35.83c-.12-.01-.18-.06-.23-.1-.5.98.09,2.1-.13,3.08-.12-.02-.35-.19-.5-.07.61.81-1.03,1.06.34,1.6-.07.03-.39,0-.5-.08.22,2.08-.15,4.17-.79,6.13.93,1.97-.67,3.53-.26,5.51l-.24-.09c.05,1.24-.44,2.36-1.05,3.41-.61,1.06-1.33,2.06-1.82,3.16-.56.83-.63,1.57-1.13,2.45l-.28-.14c.07,1.03-.62,1.67-1.31,2.29-.69.63-1.37,1.24-1.37,2.33l-.26-.33c.36.59-.8.74.13,1.28l-.45.06c.21.9-.27,1.26-.81,1.57-.54.32-1.12.63-1.28,1.47l-.12-.23c-.11.42-.31.87-.66.94,0-.06-.06-.09-.05-.2-.77.14-1.18.61-1.53,1.19-.37.54-.68,1.19-1.18,1.61l-.17-.41c-.15.77-1.29,1.19-1.83,1.82l-.07-.18-.18.46-.23-.3c-.86.59-1.54,1.39-2.46,1.87Z"/>
          <path class="cls-4" d="M119.83,117.46s0,0,0,.01c.04,0,.02,0,0-.01Z"/>
          <path class="cls-4" d="M134.29,37.98s-.09,0-.13,0c.01,0,.09,0,.13,0Z"/>
        </g>
      </g>
      <text class="cls-1" transform="translate(34.36 180.56) scale(1 .9)"><tspan x="0" y="0">EBA</tspan></text>
    </g>
  </g>
</svg>