<?xml version="1.0" encoding="UTF-8"?>
<svg id="Calque_2" data-name="Calque 2" xmlns="http://www.w3.org/2000/svg" viewBox="0 0 136.38 114.17">
  <defs>
    <style>
      .cls-1 {
        fill: #fff;
      }

      .cls-2 {
        fill: none;
      }

      .cls-3 {
        fill: #f29b00;
      }
    </style>
  </defs>
  <g id="Calque_3">
    <g>
      <g>
        <g>
          <path class="cls-1" d="M73.34,20.05c0,.05,0,.11-.01.16.09-.04.1-.09.01-.16Z"/>
          <g>
            <polygon class="cls-1" points="73.09 20.38 73.09 20.38 73.09 20.37 73.09 20.38"/>
            <polygon class="cls-1" points="73.09 20.36 73.09 20.36 73.09 20.37 73.09 20.36"/>
            <path class="cls-1" d="M73.1,20.36h0s0,0,0,0Z"/>
            <path class="cls-1" d="M73.27,20.18h0s0,0,0,0Z"/>
            <path class="cls-1" d="M73.5,20.06l.15-.08c-.27.14,0-.02-.13.04l.05-.03c.04-.06-.2.1-.3.19.01-.01.05-.05.07-.06-.04.04-.1.09-.11.1.03-.02.06-.05.07-.06.21-.19-.13.12.03-.03,0,0-.15.14-.11.11-.01.01-.02.02-.06.06h0c-.06.07-.04.05-.05.06h0s0,0,.02-.02h0s0,0,0,0h0s0,0,.02-.03c.01-.01,0,0,.01-.01h0c.09-.1.06-.07.08-.08.05-.04.02-.02.04-.03.01,0,0,0,.01,0h0s.05-.03.06-.03c0,0,0,0-.01-.01h0c-.05-.05.04.03-.02-.01h0s-.03-.04-.04-.06c-.02-.04,0,0,.04.12l-.04-.09s0,.02.01.03h0s0,.01,0,.01l.12.09h0s0,0,0,0h.1c.08,0,.17,0,.1,0,.22,0-.55-.06-.26-.05.47.03-.54-.05-.05-.02.74.04.27,0-.18-.04.26,0-.41-.05.13-.02-.35-.03.43.02.33,0h-.12c.36.01-.51-.04.03-.01h.02c.27.02-.65-.04-.32-.02h-.14s.16,0,.21,0c-.02,0-.25-.02-.17-.01.51.03-.07,0,.5.03,0,0,.24.02.37.02.06,0,.03,0-.23-.02-.28-.02-.52-.03-.74-.05h.2c-.2,0-.1,0-.26,0-.03,0-.32-.02-.45-.02,0,0,.01,0,.02,0,.24.02.1,0,.06,0h-.11c-.24-.02.46.02.06,0,.1,0,.1.01.1.02.15.01-.01,0,.28.02-.34-.02-.4-.02-.41-.02-.03,0-.04,0-.06,0-.44-.03.41.03-.13,0,.33.02-.06,0,.33.02-.08,0-.16-.01-.23-.01,0,0-.15,0-.16,0,.33.02-.15,0,.31.03-.1,0-.29-.01-.11,0h-.06s.05,0,.34.03c-.44-.03-.35-.02-.5-.03.2.02.14.01.33.03-.18-.01.06,0-.21-.01.57.04.37.04-.06.02h-.02c.16,0,.52.03.73.05-.03,0-.07,0-.07,0-.06,0-.13,0-.18,0t-.1,0c.13,0-.24-.01,0,0h-.08s.11,0,.11,0c-.1,0-.18-.01-.21-.01-.1,0,.41.05.34.06h-.09s.17,0,.17,0c-.05,0-.07,0-.1,0-.08,0-.06,0-.01,0h.03s0,0,0,0h0s.69.5.69.5c0,0,0-.01,0-.01,0-.02,0-.03,0-.02.02.04.05.13.08.18-.1-.25.15.31-.07-.2.01.02.06.14.08.18-.06-.18-.04-.17.03-.11-.23-.45.02-.07-.19-.41l.06.08c-.19-.29.04,0,.02-.08.04.02-.05-.06-.05-.07l.1.08c-.18-.15-.1-.08,0-.05.09.04.2.05-.05-.06l.16.06c-.24-.09.08,0-.32-.12l.11.03c-.18-.05-.09-.03-.11-.03h0c.06.01.21.02,0,0h.11c-.08,0-.15,0-.05,0h.08c.42-.04-.05-.04-.03-.02l.2-.04c-.23.05-.02-.02-.13,0l.09-.03-.13.04.18-.07s-.15.03-.17.04Z"/>
            <path class="cls-1" d="M73.3,20.15h0s0,0,0,0Z"/>
            <path class="cls-1" d="M72.47,20s.02,0,.04,0c-.04,0-.03,0-.04,0Z"/>
          </g>
        </g>
        <g>
          <path class="cls-1" d="M68.77,81.32s0,.01,0,.02c.26.02.45.04.56.05,0,0,0,0-.01-.01-.13-.01-.32-.03-.55-.06Z"/>
          <g>
            <polygon class="cls-1" points="68.66 82.34 68.66 82.4 68.68 82.24 68.66 82.34"/>
            <path class="cls-1" d="M68.71,81.99s0-.08.01-.11l-.05.45c-.02.26.06-.52.04-.35Z"/>
            <path class="cls-1" d="M68.71,82.03c0,.11.01-.11.02-.18-.02.16,0-.04-.02.18Z"/>
            <path class="cls-1" d="M68.9,81.95s0,0,0,.01c0,0,0,0,0-.01Z"/>
            <path class="cls-1" d="M69.02,81.23l.02-.17c-.04.3-.02,0-.04.12v-.06c-.01-.07-.06.21-.1.34,0-.02,0-.07,0-.09,0,.06-.02.14-.02.15,0-.04,0-.08.01-.1.02-.28-.03.18-.01-.04,0,.03-.02.15-.03.24-.03.07-.05.12-.09.34,0-.04.01-.12.02-.21-.06.45-.06.27-.07.2-.01.12-.01.13-.03.25,0,.15.04-.29.02-.07v.12c-.02.07.02-.29,0-.14,0,.1-.01.15-.02.16.01-.05,0,.06.04-.22-.02.25,0,0-.01.25.01-.1,0-.07.03-.24.01.14.06-.1.09-.08.06-.48.02.1.05-.06,0,.02,0,.04,0,.05.02-.12.03-.18.03-.11l.03-.2c0,.43.06.13.08.31.03.13.03.48.13-.16,0,.05,0,.07-.01.09.02-.1.01.08.03-.02v.05c.06-.37.05,0,.1-.28l-.11-.04s.03-.04.05-.07v.02s.11-.31.11-.31c-.03-.03-.06.02-.1.13v-.1c-.04.2-.02-.31-.06-.16,0-.22-.1.55-.1.25.02-.48-.08.54-.06.05.03-.74-.04-.27-.11.17,0-.27-.1.41-.08-.13-.04.34,0-.43-.02-.33v.12c.02-.36-.07.51-.02-.03v-.02c.02-.27-.06.64-.03.32v.14s-.01,0-.01,0l-.25-.33h0s0,0,.01,0c.01,0,.03,0,.06.01.05,0,.11.02.14.03-.02,0-.24-.05-.17-.04.5.09-.07-.01.5.09,0,0,.24.05.36.07.03,0,.04,0,0,0-.06-.01-.19-.04-.44-.09l.1.02-.1-.02c-.06-.01-.13-.03-.19-.04-.12-.02-.23-.04-.34-.07l.2.04c-.2-.04-.1-.02-.25-.05-.03,0-.32-.06-.44-.08,0,0,.01,0,.02,0,.24.05.1.02.06.02h-.06s-.03-.02-.03-.02l.74,1.02c-.02.24.05-.46,0-.06.02-.1.03-.09.04-.1.01-.15,0,.02.03-.28-.03.34-.03.43-.02.41,0,.03,0,.07,0,.06-.03.44.04-.41,0,.13.03-.38,0,.12.04-.33,0,.08-.01.16-.02.23,0,0,0,.15.02.17.04-.33,0,.15.05-.31,0,.1-.01.29.01.11v.06s.02-.05.05-.34c-.03.44-.02.35-.03.5.02-.2.03-.14.05-.33-.02.2.01-.09-.01.21.07-.57.08-.37.07.07v.02c.01-.16.05-.52.07-.73,0,.03,0,.07,0,.07,0-.05-.01.24,0,.18t0,.1c.01-.13-.01.24.01,0v.08s0-.11,0-.11c0,.1-.02.25-.02.21.03.1.11-.41.14-.33v.09s.01-.17.01-.17c0,.05,0,.07,0,.1,0,.17.03-.11.03-.07,0,.05-.01.14-.02.2.03-.27-.02.35.03-.21,0,.03-.01.15-.02.2.03-.18.05-.17.07-.08.02-.17.03-.23.04-.25l.22-.63-.03.04s0,0-.01,0l-.14-.05s-.02.04-.04.18v-.1c-.05.35-.03-.03-.06.04,0-.04-.02.08-.03.08v-.12c-.05.47.02-.43-.05.09l.02-.17c-.03.26,0-.09-.05.36v-.14c-.06.59.02-.28-.03.11v-.11c0,.08-.01.15,0,.05,0-.02,0-.05,0-.07.03-.42-.03.04-.04.02l.02-.2c-.03.23-.02.01-.04.12v-.09s0,.13,0,.13l.02-.19s-.03.15-.05.17Z"/>
            <path class="cls-1" d="M68.9,81.43h0s0,0,0,0Z"/>
            <path class="cls-1" d="M67.91,81.16s.02,0,.04,0c-.04,0-.03,0-.04,0Z"/>
          </g>
        </g>
        <g>
          <path class="cls-1" d="M76.84,60.1c-.48.41-.96.85-1.43,1.32-.97.93-1.9,1.9-2.71,2.98-.3.39-.64.86-.98,1.37-.53.73-1.05,1.47-1.55,2.24.2-4.6.17-9.24.14-13.87.59-8.29,1.28-16.56,2.14-24.65.21-2.25.71-6.71.88-9.27-.03.01-.08.02-.13.03,0-.02.02-.07.02-.07,0,0,.04-.12.05-.15,0,0,.01,0,.02-.01.03.02.04.03.06.04,0-.03,0-.06,0-.08,5.2-3.41,8.89-7.92,7.89-14.15-.68-3.39-5.11-4.98-7.93-4.89-6.83,0-13.21,3.13-17.67,7.77-4.22,4.49-8.73,10.04-12.43,16.04-1.14.38-2.14.72-2.95,1.03-10.78,3.81-22.69,7.07-32.22,13.96-6.28,4.38-9.85,13.97-4.79,20.46,6.53,8.52,21.42,5.98,26.43-2.44.59-.86-.76-1.83-1.49-1.02-2.81,3.03-6.74,5.07-10.99,5.27-8.95.4-14.22-6.78-9.39-14.13,1.72-2.88,5.46-5.18,9.29-7.03,6.79-3.15,14.21-5.48,21.68-7.72-4.47,10.27-5.44,21.02,1.95,29.62-7.51.28-13.87,6.02-16.47,12.9-3.47,8.25-3.18,17.27.07,25.28,3.47,9.39,11.39,15.41,22.21,11.04,8.78-3.15,15.48-10.26,18.66-18.34,1.67-4.03,2.79-8.13,3.56-12.28-.06,0-.09,0-.16-.01,0,0,0-.01,0-.02.06,0,.1.01.15.02.02-.12.04-.24.07-.36.16.14.3.29.48.41.22.02.25.03.01.01.75.5,1.71.86,2.94,1.06,5.37-.08,8.65-3.09,12.5-5.69,2.62-1.98,5.37-4.35,6.48-7.4.29.13.57.28.91.38,1.63.3,3.08-.18,4.21-.74,2.76-1.31,4.97-3.29,6.53-5.62,1.64,1.47,3.85,2.24,6.81,1.73,5.07-1.51,8.02-6.22,9.39-10.56.28-.76-.94-1.31-1.41-.64-2.63,3.19-4.66,7.26-8.74,8.53-2.02.4-3.51-.43-4.6-1.77,1.09-2.67,1.41-5.62.82-8.53-.27-1.71-.73-3.36-1.33-4.98-.04-.13-.16-.53-.47-.94-.68-.79-1.13-.86-1.45-1.04-3.98-1.02-8.48.75-10.78,3.92-3.06,1.98-6.33,4.81-9.04,6.74-1.54,1.24-3.12,2.45-4.64,3.73-.06.05-.12.1-.18.15-.15.12-.28.25-.43.38M93.05,54.3c-.08-.2-.13-.4-.16-.59.32-.95.65-1.86.98-2.73,1.13-1.25,3.01-2.16,4.8-2.33-.69,1.29-1.53,2.57-2.37,3.68-.78.97-1.91,2.3-2.94,2.45.06,0-.12-.08-.31-.47ZM89.7,52.59c-.03.31-.04.63-.02.95-.58,1.34-1.12,2.8-1.53,4.29-1.09-.83-2.44-1.34-4.12-1.28-.03,0-.06.02-.1.02,1.86-1.43,3.8-2.75,5.76-3.98ZM70.89,19.74s-.02.05-.02.05c-.02.06-.04.12-.06.18-.1-.07-.09-.15.08-.24ZM74.49,7.78s.05.02.05.03c0,.01-.02,0-.05-.03ZM59.87,12.41c3.48-3.02,8.45-5.01,13.15-4.92.47.01.89.1,1.18.19-.03,6.31-13.79,11.42-24.33,14.89,3.11-3.62,6.57-7,10-10.16ZM44.37,107.94c-5.09,3.43-11.21,2.32-13.84-2.96-2.7-4.97-2.47-10.92-1.88-16.32,1.04-9.58,5.25-23.24,18.33-20.74,2.26.48,3.5-2.56,1.41-3.59-7.5-3.98-11.11-12.71-9.67-20.59.74-4.24,2.36-8.22,4.52-11.98,4.21-1.26,8.4-2.53,12.47-3.96,4.15-1.53,9.64-3.4,14.49-5.98-8.66,27.76,2.32,67.5-25.84,86.12ZM77.91,77.66c-1.89.59-3.97.98-5.31.89-.67-.11-.78-.16-.99-.43-.25-.83-.3-1.72-.24-2.64,2.01-3.48,4.49-6.83,7.13-9.72,1.68-1.69,3.58-3.72,5.75-4.04.29.03.33-.02.72.31.76.67,1.61,2.41,2.17,4.12,1.89,5.12-4.43,10.01-9.24,11.5ZM95.38,66.51c-1.58.17-2.34-.35-3.18-1.41-1.08-2.33-.92-5.14-.29-7.92.25.13.5.26.81.34,1.32.21,2.29-.3,2.94-.71,1.45-1.06,2.48-2.25,3.39-3.54.12,2.3.57,4.63,1.45,6.63-.66,3.09-2.16,5.77-5.1,6.62Z"/>
          <g>
            <path class="cls-2" d="M76.84,60.1c-.48.41-.96.85-1.43,1.32-.97.93-1.9,1.9-2.71,2.98-.3.39-.64.86-.98,1.37-.53.73-1.05,1.47-1.55,2.24.2-4.6.17-9.24.14-13.87.59-8.29,1.28-16.56,2.14-24.65.21-2.25.71-6.71.88-9.27-.03.01-.08.02-.13.03,0-.02.02-.07.02-.07,0,0,.04-.12.05-.15,0,0,.01,0,.02-.01.03.02.04.03.06.04,0-.03,0-.06,0-.08,5.2-3.41,8.89-7.92,7.89-14.15-.68-3.39-5.11-4.98-7.93-4.89-6.83,0-13.21,3.13-17.67,7.77-4.22,4.49-8.73,10.04-12.43,16.04-1.14.38-2.14.72-2.95,1.03-10.78,3.81-22.69,7.07-32.22,13.96-6.28,4.38-9.85,13.97-4.79,20.46,6.53,8.52,21.42,5.98,26.43-2.44.59-.86-.76-1.83-1.49-1.02-2.81,3.03-6.74,5.07-10.99,5.27-8.95.4-14.22-6.78-9.39-14.13,1.72-2.88,5.46-5.18,9.29-7.03,6.79-3.15,14.21-5.48,21.68-7.72-4.47,10.27-5.44,21.02,1.95,29.62-7.51.28-13.87,6.02-16.47,12.9-3.47,8.25-3.18,17.27.07,25.28,3.47,9.39,11.39,15.41,22.21,11.04,8.78-3.15,15.48-10.26,18.66-18.34,1.67-4.03,2.79-8.13,3.56-12.28-.06,0-.09,0-.16-.01,0,0,0-.01,0-.02.06,0,.1.01.15.02.02-.12.04-.24.07-.36.16.14.3.29.48.41.22.02.25.03.01.01.75.5,1.71.86,2.94,1.06,5.37-.08,8.65-3.09,12.5-5.69,2.62-1.98,5.37-4.35,6.48-7.4.29.13.57.28.91.38,1.63.3,3.08-.18,4.21-.74,2.76-1.31,4.97-3.29,6.53-5.62,1.64,1.47,3.85,2.24,6.81,1.73,5.07-1.51,8.02-6.22,9.39-10.56.28-.76-.94-1.31-1.41-.64-2.63,3.19-4.66,7.26-8.74,8.53-2.02.4-3.51-.43-4.6-1.77,1.09-2.67,1.41-5.62.82-8.53-.27-1.71-.73-3.36-1.33-4.98-.04-.13-.16-.53-.47-.94-.68-.79-1.13-.86-1.45-1.04-3.98-1.02-8.48.75-10.78,3.92-3.06,1.98-6.33,4.81-9.04,6.74-1.54,1.24-3.12,2.45-4.64,3.73-.06.05-.12.1-.18.15-.15.12-.28.25-.43.38M93.05,54.3c-.08-.2-.13-.4-.16-.59.32-.95.65-1.86.98-2.73,1.13-1.25,3.01-2.16,4.8-2.33-.69,1.29-1.53,2.57-2.37,3.68-.78.97-1.91,2.3-2.94,2.45.06,0-.12-.08-.31-.47ZM89.7,52.59c-.03.31-.04.63-.02.95-.58,1.34-1.12,2.8-1.53,4.29-1.09-.83-2.44-1.34-4.12-1.28-.03,0-.06.02-.1.02,1.86-1.43,3.8-2.75,5.76-3.98ZM70.89,19.74s-.02.05-.02.05c-.02.06-.04.12-.06.18-.1-.07-.09-.15.08-.24ZM74.49,7.78s.05.02.05.03c0,.01-.02,0-.05-.03ZM59.87,12.41c3.48-3.02,8.45-5.01,13.15-4.92.47.01.89.1,1.18.19-.03,6.31-13.79,11.42-24.33,14.89,3.11-3.62,6.57-7,10-10.16ZM44.37,107.94c-5.09,3.43-11.21,2.32-13.84-2.96-2.7-4.97-2.47-10.92-1.88-16.32,1.04-9.58,5.25-23.24,18.33-20.74,2.26.48,3.5-2.56,1.41-3.59-7.5-3.98-11.11-12.71-9.67-20.59.74-4.24,2.36-8.22,4.52-11.98,4.21-1.26,8.4-2.53,12.47-3.96,4.15-1.53,9.64-3.4,14.49-5.98-8.66,27.76,2.32,67.5-25.84,86.12ZM77.91,77.66c-1.89.59-3.97.98-5.31.89-.67-.11-.78-.16-.99-.43-.25-.83-.3-1.72-.24-2.64,2.01-3.48,4.49-6.83,7.13-9.72,1.68-1.69,3.58-3.72,5.75-4.04.29.03.33-.02.72.31.76.67,1.61,2.41,2.17,4.12,1.89,5.12-4.43,10.01-9.24,11.5ZM95.38,66.51c-1.58.17-2.34-.35-3.18-1.41-1.08-2.33-.92-5.14-.29-7.92.25.13.5.26.81.34,1.32.21,2.29-.3,2.94-.71,1.45-1.06,2.48-2.25,3.39-3.54.12,2.3.57,4.63,1.45,6.63-.66,3.09-2.16,5.77-5.1,6.62Z"/>
            <g>
              <polygon class="cls-1" points="95.67 67.5 95.7 67.55 95.71 67.38 95.67 67.5"/>
              <path class="cls-1" d="M95.88,67.05s-.03-.07-.05-.1l-.04.5c.16.22-.01-.55.09-.4Z"/>
              <path class="cls-1" d="M95.94,67.08c.11.08.06-.14.05-.21.03.16-.14,0-.05.21Z"/>
              <path class="cls-1" d="M100.27,62.61s0,.02,0,.03c.01,0,0-.02,0-.03Z"/>
              <path class="cls-1" d="M100.11,60.9l-.16-.06c.21.36-.17.57-.15.89l-.05-.04c-.32.68-.35,1.42-.66,2.14,0-.02-.05-.05-.06-.07.03.06.1.16.06.18-.04-.01-.06-.05-.07-.07-.32-.02-.12.5-.37.45,0,.05.08.14.16.18-.33.53-.76,1.05-1.16,1.62-.05-.01-.1-.07-.15-.16-.19.71-.87.85-1.43.99.02.12.1.1.09.24.24.07.21-.41.46-.28l.03.11c.15.01-.1-.28.08-.19.09.07.05.14.08.14.22-.18.54-.21.59-.6.19.18.24-.15.47-.01,0-.12.07-.15-.01-.3.83-.48,1.28-1.38,1.77-2.14-.21-.61.54-.77.59-1.31.02,0,.03.01.05.02-.04-.2,0-.43.11-.59l-.14-.22c.2-.23.34-.49.46-.76.05-.14.1-.27.15-.41.04-.14.07-.26.13-.5.02-.1.07-.21.05-.3l-.12-.27c-.09-.2-.14-.33-.18-.45-.1-.26-.17-.52-.21-.79-.13-.61-.16-1.2-.26-1.76-.05-.29-.11-.55-.22-.85-.13-.45-.29-.91-.48-1.2.04-.05.07-.09.09-.06-.07-.23-.08-.5-.08-.79,0-.29,0-.6-.07-.76l.04-.1c-.12-.11-.16-.36-.22-.54-.27.43-.52.73-.8,1.11-.27.37-.56.82-.73,1.26-.41.44-.77.81-1.14,1.18-.38.37-.76.75-1.16,1.09l-.05-.08c-.3.3-.71.42-1.11.45-.4.03-.77-.01-1.16.05-.1-.04-.19-.05-.3-.07-.14-.02-.27-.08-.4-.11-.25-.06-.47-.08-.65-.09-.04.62.02,1.05-.2,1.43-.56.47.36,1.29-.16,1.74-.82.99-.29,2.13.34,3.02-.03.49.19.92.42,1.32l.17.3c.04.09.08.14.14.23.13.18.23.39.31.64.27.02.36.22.5.47.13.24.33.5.6.52v-.12c.13.41.48-.43.52.12l-.02.02c.09.29.26-.63.29-.3l.02-.14c.11-.04,0,.16.09.21.03-.02,0-.25.08-.17.03.56.26-.13.31.49-.07,0,.12.23-.02.38.05.06.26.01.21-.25-.01-.28.03-.53-.1-.74v.21c-.06-.2-.04-.1-.07-.25-.14-.02-.18-.31-.27-.43,0,0,0,.01,0,.02-.05.25-.15.11-.19.07l-.02-.11c-.02-.24-.15.46-.1.05-.25.09-.52.04-.74-.05-.09.13-.17-.09-.25.2.08-.34,0-.5-.07-.53.02-.02.04-.05.04-.04.17-.42-.38.22-.13-.27-.28.27-.08-.25-.46,0,.05-.07.1-.13.16-.17-.04-.05-.08-.11-.11-.17-.03-.06-.08-.14-.05-.14.01-.02.03-.03.04-.05-.01-.06-.02-.12-.04-.18-.39-.06-.02-.48-.51-.5.05-.17.18-.43-.04-.58h.06c-.08-.2-.14-.48-.46-.59.43-.13.33-.21.46-.33-.23-.12-.19-.44-.39-.66.2-.04-.09-.19.2-.21-.6-.65-.35-1.54.18-2.18h.02c-.15-.1-.49-.26-.69-.39.03,0,.08,0,.07.02-.04-.14.27-.22.24-.36t.09.04c-.11-.16.25-.04.04-.19l.07.04s-.06-.06-.09-.09c.09.06.22.15.19.14.04-.04.03-.11.03-.21.04-.02.1-.04.2-.06,0-.01.1-.01.2-.02l.27-.02c.18-.02.35-.05.53-.08.35-.07.68-.17,1.01-.26l-.02.1c.07-.08.13-.17.19-.25.02.05.01.07.01.1.39.03.57-.39.86-.52.02.04.03.15.1.17.07-.36.53.05.3-.47.02.01.11.11.11.16.39-.53.87-.95,1.38-1.34.03-.39.1-.49.25-.65.14-.15.23-.25.39-.75v.17c.2-.55.45-.86.61-1.01.03.09,0,.38,0,.53,0,.18,0,.32.03.43-.01.3.11.31.15.58l-.11.12c.24,0,.19.39.12.62-.06.26-.1.56.21.76h-.17c.27.03-.03.33.41.2l-.11.12c.66.21-.12.69.37,1.01h-.11c.11.09.21.2.14.31-.02,0-.05,0-.08-.01-.3.48.28.72.4,1.07l-.2.03c.28.11.22.45.36.62h-.09s.08.06.11.09h-.19c-.06.19.01.59-.04.86Z"/>
              <path class="cls-1" d="M99.02,63.87h0s0-.01,0,0Z"/>
              <path class="cls-1" d="M94.95,65.67s.02.02.03.04c0-.04-.02-.03-.03-.04Z"/>
            </g>
            <g>
              <polygon class="cls-1" points="78.21 78.64 78.25 78.69 78.27 78.51 78.21 78.64"/>
              <path class="cls-1" d="M78.5,78.16s-.03-.07-.05-.09l-.09.52c.19.21.02-.56.15-.42Z"/>
              <path class="cls-1" d="M78.59,78.18c.13.07.09-.15.09-.22.02.17-.19.01-.09.22Z"/>
              <path class="cls-1" d="M85.57,73.59s0,.02,0,.03c.01,0,.02-.02,0-.03Z"/>
              <path class="cls-1" d="M86.31,71.43l-.14-.11c.07.5-.47.67-.6,1.08l-.03-.06c-.71.75-1.2,1.63-1.95,2.4,0-.02-.03-.07-.03-.09,0,.08.02.2-.03.23-.04-.02-.04-.07-.03-.1-.35-.09-.42.53-.66.44-.03.06.01.17.09.23-.64.55-1.38,1.06-2.04,1.66-.06-.02-.1-.08-.13-.17-.45.74-1.26.91-2,1.1.01.12.12.09.09.24.29.06.32-.43.61-.32l.02.12c.18,0-.08-.28.13-.21.1.06.04.14.07.14.3-.17.68-.23.85-.63.18.19.34-.16.56,0,.04-.13.12-.15.07-.31,1.13-.45,2.03-1.35,2.98-2.11.13-.73,1.01-.76,1.38-1.38.02,0,.03.02.04.03.06-.25.23-.53.45-.69,0-.1,0-.2-.02-.3,1.32-1.01,1.86-2.74,2.07-4.44.03-.24,0-.49,0-.73,0-.24,0-.49-.05-.72-.08-.47-.17-.93-.31-1.32-.27-.81-.68-1.6-1.4-2.23.04-.02.06-.05.1-.02-.34-.4-.45-.91-.9-1.26l.04-.03c-.19-.12-.37-.22-.56-.32-.1-.05-.23-.12-.4-.15-.15-.02-.23-.01-.37-.03-.96.18-1.82.47-2.35,1.17-1.2.73-2.28,1.89-3.21,3l-.07-.07c-.66.98-1.77,1.5-2.39,2.5-.93.8-1.08,2.27-2.01,3.07-.83.34-.53,1.72-1.32,2.03-.7.4-1.14.97-1.43,1.62-.08.17-.13.32-.2.52-.11.19-.06.42-.02.61.08.36.2.72.34,1.05-.04.62.06,1.43.7,1.38.53.06,1.21-.04,1.85.17.54-.41,1.33.24,1.99-.01l-.05-.11c.32.3.41-.62.68-.13l-.02.03c.2.24.12-.7.28-.41l-.02-.14c.14-.08.06.14.19.16.04-.03-.05-.24.06-.19.17.53.33-.22.52.37-.08.03.2.19.05.37.07.04.32-.06.22-.31-.06-.27-.04-.54-.25-.7l.03.2c-.11-.18-.07-.09-.13-.23-.2.03-.31-.24-.49-.32,0,0,0,.01,0,.02-.03.26-.2.16-.28.15l-.06-.1c-.11-.22-.1.51-.15.1-.37.2-.83.31-1.27.4-.03.17-.34.05-.19.33-.18-.31-.52-.34-.64-.31,0-.03,0-.07.02-.06-.3-.4-.22.45-.52-.06,0,.39-.4-.08-.49.38-.03-.08-.05-.16-.04-.23-.19,0-.4-.02-.58-.06-.09-.02-.18-.04-.26-.06-.03,0-.02-.02-.02-.02l-.12-.03c-.1.15-.09.11-.1.09,0-.03,0-.02-.21.07.03-.06.1-.11.12-.17.01-.14-.01-.27-.12-.39l.06.02c-.07-.29-.11-.67-.4-.89.44-.09.36-.23.5-.36-.1-.06-.15-.05-.16-.11-.02,0,.03-.12.05-.2.03-.09.05-.19.05-.29.2.06.07-.29.34-.15,0-1.13.84-2.05,1.78-2.65v.02c-.05-.2-.26-.54-.35-.77.03,0,.07.03.05.06.06-.19.41-.17.47-.35t.06.08c0-.22.41-.16.34-.46l.07.04v-.17c.07.06.18.15.12.19,1.03-1.25,1.68-2.88,2.84-4.1l.03.11.09-.35s.04.06.05.09c.4-.19.46-.7.78-.95.03.03.06.14.14.14.02-.4.59-.1.3-.59.03,0,.12.09.13.14.46-.72,1.08-1.31,1.76-1.75.22-.83,1.1-.89,1.55-1.54l.04.09c.33-.35.82-.51,1.27-.53.26.02.39.12.57.31.16.17.31.35.47.53.2.34.44.51.64.86l-.11.07c.76.4.23,1.45.96,1.92h-.18c.29.02.06.45.47.26l-.09.17c.37.13.36.38.33.63-.04.26-.05.5.15.78l-.11-.02c.1.14.18.33.09.45-.02-.02-.05,0-.08-.04-.17.26-.18.49-.15.75.04.26.14.54.05.79l-.18-.1c.16.29-.13.69-.18,1.01l-.08-.05.06.2-.18-.07c-.15.39-.22.8-.41,1.18Z"/>
              <path class="cls-1" d="M83.51,74.78h0s0-.01,0,0Z"/>
              <path class="cls-1" d="M77.13,76.98s.04.01.06.02c-.01-.04-.04-.02-.06-.02Z"/>
            </g>
            <g>
              <polygon class="cls-1" points="44.94 108.8 45.06 108.78 45.21 108.48 44.94 108.8"/>
              <path class="cls-1" d="M46.27,107.41c-.06,0-.07-.05-.13-.04l-.64,1.01c.55-.08.4-.93.77-.98Z"/>
              <path class="cls-1" d="M46.56,107.26c.41-.16.43-.44.46-.55-.02.22-.68.42-.46.55Z"/>
              <path class="cls-1" d="M64.2,75.25s0,.09-.01.13c.02-.06.02-.11.01-.13Z"/>
              <path class="cls-1" d="M64.79,65.57l-.16-.12c.12,1.82-.42,3.8-.55,5.71l-.04-.14c-.74,4.76-1.34,9.19-2.66,13.82,0-.08-.04-.12-.03-.2-.01.24.02.52-.07.76-.06.05-.05-.09-.04-.18-.61.86-.8,2.88-1.28,3.38-.08.27-.02.44.12.32-1.35,3.53-3.26,7.13-5.46,10.34-.14.12-.23.1-.27,0-1.66,2.91-4.3,5.31-7.02,7.33-.03.18.35-.12.16.19.94-.59,1.36-1.51,2.26-1.98l-.02.17c.59-.44-.09-.32.56-.72.28-.14.05.16.15.07.53-.56,1.12-1.08,1.65-1.65.51-.59.98-1.19,1.35-1.83.46-.08,1.03-1.29,1.58-1.59.16-.38.43-.68.38-.9,3.24-4.32,5.32-9.49,6.86-14.71.25-2.57,1.54-5.4,1.89-8.42.02-.02.04-.01.05.01.08-.99.22-2.41.46-3.56l-.07-1.01c1.38-6.94,1.46-14.17,2.12-21.28.69-8.09,1.57-15.09,2.68-22.87.04.02.08-.04.06.17.08-.42.17-.83.27-1.24l.15-.6.08-.31.12-.42c.32-1.1.69-2.25.98-3.34-.69.37-1.38.74-2.08,1.11l.02-.07c-.44.25-.94.53-1.28.7-.29.16-.59.32-.89.47-.6.3-1.22.59-1.84.87-1.25.55-2.53,1.05-3.82,1.53-1.29.48-2.57.96-3.83,1.43-1.25.49-2.48.98-3.68,1.45-2.99.93-6.16,1.93-9.37,2.98l-.6.2-.34.11-.17.06c-.06.02-.07.1-.1.14-.25.44-.42.76-.63,1.16-.39.75-.77,1.52-1.11,2.29-.69,1.55-1.28,3.14-1.73,4.73l-.09-.04c-.66,2.57-1.26,5.13-1.27,7.77-.05,2.63.48,5.29,1.61,7.72,1.02,2.56,2.81,4.91,5.03,6.65,1.08.91,2.32,1.6,3.53,2.27.64.29,1.12.96,1.08,1.69-.02.71-.46,1.37-1.06,1.68-.8.36-1.65,0-2.62-.05-.48-.03-.96-.12-1.44-.07l-1.45.14c-1.92.32-3.67.96-5.12,1.64-.79.28-1.42.82-2.11,1.28-.33.25-.61.55-.91.83-.29.29-.61.57-.85.9-.51.65-1.03,1.29-1.41,2.02-.44.7-.79,1.44-1.11,2.19-1.3,3-1.88,6.24-2.19,9.48-.59,2.95-.79,5.98-.7,8.95.1,2.97.55,5.87,1.45,8.64.72,1.19,1.27,2.51,2.21,3.69.91,1.18,2.26,2.18,3.82,2.53l-.08-.14c.49.34,1.16.31,1.73.25.29-.04.56-.08.8-.07.24-.02.45.02.64.14l-.12.03c.31.13.65-.07.92-.29.28-.21.52-.39.72-.29l.06-.16c.66-.22.12.13.66.04.19-.08,0-.26.42-.33.13.23.55.08.92-.14.37-.21.75-.4.92-.15-.35.2.67-.1-.06.45.27-.05,1.32-.75,1.07-.91-.07-.29.18-.74-.55-.54v.25c-.32-.05-.22,0-.37-.08-.79.47-1.06.2-1.67.37,0,0,.02,0,.01.02-.31.38-.93.47-1.27.5l-.16-.07c-.24-.16-.88.66-.69.21-1.71.45-3.86.21-5.55-.79-.33.01-1.23-.88-1.06-.38-.21-.57-1.12-1.67-1.4-2.14.04,0,.08,0,.12.07-.19-1.09-1.01-.88-.99-2.05-.21,0-.36-.43-.54-.92-.15-.5-.33-1.03-.62-1.25.05-.15.11-.21.19-.18-.53-1.78-.61-3.85-.65-5.43-.4-1.35.16-3.29-.2-4.5.17-.97.51-2.55.51-3.93l.04.14c.07-.77.23-1.62.31-2.43.12-.8.19-1.55.16-2.1.55-.34.63-1,.93-1.6.04-.52.25-1.26.47-2.07.29-.78.53-1.66.81-2.39.29-.13.47-1.2.77-1.13.75-2.02,2.15-4.12,4.14-5.52,1.97-1.43,4.49-1.94,6.7-1.66l-.06.02c.57-.23,1.27-.46,1.92-.6.06.03.04.08-.08.06.44.03.8.13,1.26.24.48.15,1.09.13,1.58-.16.01.05.02.05-.14.17.48-.27.94-.59,1.29-1.08.34-.47.55-1.16.32-1.81l.06-.09c-.09-.28-.24-.54-.42-.76.09-.04.26-.1.43.38-.23-.68-.79-1.22-1.34-1.49l-1.16-.68c-.75-.49-1.5-1.01-2.18-1.61-1.38-1.18-2.61-2.58-3.61-4.14-2-3.11-3.1-6.92-2.92-10.68l.08.28-.07-1.46s.07.08.09.16c.35-1.81.51-3.78,1.1-5.52.04.02.05.31.18.09.15-1.38,1.03-1.93.76-2.76.05-.05.18-.04.17.1.31-.89.66-1.77,1.06-2.64.2-.43.41-.86.63-1.29l.34-.64.29-.52c.02-.07.08-.09.15-.11l.24-.08.7-.22,1.39-.43c.93-.28,1.86-.56,2.79-.83,1.46-.73,3.07-1.25,4.71-1.77.82-.26,1.64-.51,2.45-.8.8-.32,1.58-.65,2.33-1.03l.02.1c1.91-.88,3.93-1.63,5.96-2.42,1.01-.4,2.03-.8,3.03-1.24l.75-.34.62-.29c.41-.19.8-.4,1.21-.62.02.05-.05.2-.06.3-.25.8-.4,1.37-.56,2.07-.16.77-.31,1.53-.53,2.44l-.13.02c-.21,3.16-1.64,6.45-1.51,9.79l-.14-.25c.2.54-.33,1.96.15,1.82l-.2.56c.37,2.27-.67,4.01-.49,6.77l-.09-.19c.03.73.03,1.58-.11,2.11,0-.08-.04-.05-.06-.22-.58,2.24-.28,4.8-.45,7.19l-.18-.28c.16,1.17-.21,3.28-.21,4.81l-.09-.1.07.78h-.19c-.16,1.98-.16,3.85-.33,5.78Z"/>
              <path class="cls-1" d="M61.23,85.23s0-.01.01-.02c0-.06,0-.03-.01.02Z"/>
              <path class="cls-1" d="M41.78,108.33c.08-.02.15-.03.22-.04-.03-.03-.15.03-.22.04Z"/>
            </g>
            <g>
              <polygon class="cls-1" points="59.17 11.65 59.11 11.63 59.17 11.79 59.17 11.65"/>
              <path class="cls-1" d="M59.06,12.24s.06.05.09.06l-.1-.53c-.27-.1.19.53.01.46Z"/>
              <path class="cls-1" d="M58.97,12.26c-.15,0-.04.18-.01.25-.08-.15.18-.1.01-.25Z"/>
              <path class="cls-1" d="M52.12,19.14s.02-.03.03-.05c-.02.02-.03.03-.03.05Z"/>
              <path class="cls-1" d="M51.18,21.25l.39-.17c-.24.03-.07-.16.12-.33.19-.18.39-.33.44-.48h.07c.65-.6,1.36-1.75,2.11-2.7,0,.03.03.07.03.09,0-.08-.03-.21.03-.25.04.01.04.07.04.1.38.01.42-.68.69-.64.03-.07-.03-.18-.12-.21.64-.74,1.35-1.51,1.92-2.36.06,0,.12.04.18.12.3-.92,1.08-1.4,1.77-1.94-.06-.11-.15-.03-.17-.18-.31.08-.17.57-.51.58l-.06-.11c-.19.07.17.24-.07.26-.12-.02-.09-.12-.12-.1-.25.3-.63.51-.7.97-.24-.12-.31.28-.58.21,0,.14-.1.19,0,.34-1.09.86-1.92,2.02-2.92,3.01-.13.83-1.04.94-1.53,1.7-.02,0-.03-.02-.04-.03-.18.37-.45.74-.82,1.06,0,.09.03.17.06.24-1.17.96-2.31,2.22-3.15,3.23,1.24-.41,2.42-.82,3.57-1.13.76-.22,1.49-.43,2.21-.63.27-.07.53-.15.79-.22.24-.07.48-.14.71-.22.94-.31,1.83-.72,2.68-1.39.01.05.04.06,0,.1.52-.31,1.09-.34,1.57-.64l.02.05c1.14-.89,2.7-1.06,3.74-2.02,1.49-.65,3.13-1.51,4.54-2.51l.05.08c1.06-.88,2.47-1.22,3.43-2.26.61-.4,1.05-1.03,1.41-1.69.35-.67.62-1.33,1-1.94.38-.3.39-1.04.26-1.42-.03-.04,0-.12-.07-.12h-.21c-.12,0-.24-.01-.36-.01-.21-.01-.37-.06-.58-.18-1.72-.76-3.46-.04-4.93.83-1.6.15-2.77,1.37-4.33,1.57-.46.64-1.53.36-2.16.91l.09.08c-.45-.13-.24.78-.69.45v-.04c-.28-.13.12.73-.15.52l.06.12c-.12.14-.11-.11-.26-.07-.03.05.14.21,0,.22-.37-.42-.27.38-.68-.09.08-.07-.28-.08-.19-.33-.09,0-.32.22-.12.4.16.23.23.49.52.54l-.1-.18c.18.12.1.05.22.15.2-.13.42.08.62.06,0,0,0,0-.01-.02-.07-.26.15-.26.24-.28l.1.07c.19.16-.07-.53.12-.16.32-.37.78-.68,1.23-.98-.02-.17.36-.21.1-.4.29.21.68.09.8,0,.01.03.02.07,0,.07.46.25.1-.53.59-.18-.14-.36.49-.11.42-.58.07.06.11.12.13.19.44-.2.98-.3,1.36-.43.2-.45.83-.16.96-.69.27,0,.71.08.98-.2l-.02.06c.37-.13.83-.28,1.03-.62.21.41.36.29.55.39.21-.26.74-.28,1.11-.52.09.2.32-.12.37.17.51-.35,1.15-.48,1.78-.45.4,0,.41.07.5.15.03.04.03.09.01.14-.04.06-.11.12-.16.15h-.02c.18-.07.56-.09.74.04-.03.01-.08,0-.07-.01.04.15-.31.24-.32.45-.05-.02-.05-.02-.08-.06.07.23-.36.26-.24.56l-.08-.02.04.18c-.09-.05-.21-.12-.15-.17-.84,1.43-2.02,3.12-3.68,4.17v-.12s-.21.35-.21.35c-.03-.04-.02-.07-.02-.1-.5.13-.77.63-1.2.84-.02-.04-.01-.16-.1-.17-.16.42-.66-.01-.53.55-.03-.01-.1-.12-.09-.17-.75.65-1.66,1.11-2.59,1.46-.52.82-1.56.79-2.19,1.51l-.04-.09c-.89.77-2.13.88-3.18,1.38-.46.14-.72.37-1.17.55l-.06-.11c-.6.74-1.75.2-2.37.98v-.18c-.04.29-.52.09-.32.5l-.19-.08c-.17.38-.44.4-.74.4-.32.01-.55-.04-.91.29l.06-.14c-.18.15-.45.31-.52.23.03-.03.04-.06.1-.11-.13-.18-.28-.12-.61.06-.31.17-.81.46-1.08.54l.49-.38c-.36.25-.56.32-.71.36-.16.04-.25.04-.59.21l.32-.21-.22.12c-.15.09-.21.11-.27.14l.62-.4c.27-.29.06-.31.32-.65Z"/>
              <path class="cls-1" d="M54.4,17.52h0s0,.02,0,0Z"/>
              <path class="cls-1" d="M60.93,12.66s-.05,0-.07,0c.03.03.05,0,.07,0Z"/>
            </g>
            <g>
              <polygon class="cls-1" points="73.68 7.15 73.63 7.12 73.74 7.23 73.68 7.15"/>
              <path class="cls-1" d="M73.9,7.45s.07.04.09.05c-.12-.09-.24-.2-.35-.31-.24-.1.4.34.25.26Z"/>
              <path class="cls-1" d="M73.85,7.45c-.11-.02.08.09.14.12-.15-.08.06-.02-.14-.12Z"/>
              <path class="cls-1" d="M74.11,8.27s0,0,0,.01c0,0,0,0,0-.01Z"/>
              <path class="cls-1" d="M74.58,7.71l.09-.11c-.15.19.01-.02-.06.07l.04-.05s-.15.16-.23.26c.01-.01.05-.05.06-.07-.04.04-.09.1-.1.12.03-.03.05-.06.06-.07.19-.21-.12.13.02-.03-.02.02-.1.11-.16.18-.06.04-.07.11-.26.23.03-.03.08-.08.15-.16-.2.12-.36.03-.4-.13-.05-.16.05-.34.12-.42-.11-.05-.12-.05-.23-.09-.19.07.23.25.01.31l-.12-.02c-.08.09.29.02.14.1-.1.01-.15.02-.16.02.05.17.06.42.36.35-.19.18.06.09-.08.28.1-.05.07-.04.18-.16-.08.1.08-.07.08-.05.32-.37-.06.08.05-.04-.01.01-.02.03-.03.04.08-.09.12-.13.08-.09l.13-.16c-.26.33-.07.11-.16.26-.07.1-.21.43.15-.1-.02.04-.04.06-.05.08.06-.08-.01.08.05,0l-.02.04c.11-.17.11-.16.15-.14.01.02.15.03.15-.2.1-.01.13-.13.1-.15-.04-.11-.07-.02-.13-.02l.09-.04c-.18.09.26-.17.1-.12.08-.08-.05-.01-.15.07-.1.08-.16.19-.08.07.12-.21.03-.1-.02.03-.06.12-.06.26,0,.02.07-.37-.02-.44-.04-.35-.03.09.01.32.11.52-.04-.13,0-.03.05.01.05.05.09.06-.09-.15.24.25-.3-.31-.24-.23l.09.08c-.27-.24.38.34-.03-.02l-.02-.02c-.21-.18.49.42.24.21l.1.09s-.12-.1-.16-.13c.01,0,.08.06.13.11-.4-.32.05.04-.39-.32,0,0-.19-.15-.29-.23-.03-.02-.03-.02,0,0,.07.05.21.17.47.38.11.09.21.16.3.23l-.16-.13c.16.13.08.06.2.16.02.02.25.21.34.29,0,0,0,0-.02-.01-.19-.15-.08-.06-.06-.03l.09.07c.18.16-.36-.29-.05-.03-.09-.05-.09-.04-.1-.03-.11-.11,0,.02-.21-.19.24.24.29.32.28.31.02.02.03.03.04.04.29.33-.29-.29.07.12-.25-.29.06.11-.24-.23.05.07.1.12.15.18-.01.02.05.15.03.19-.2-.27.02.17-.23-.22.04.09.09.28-.02.13l.03.05s-.1-.01-.2-.29c.13.43.08.35.1.49-.08-.19-.13-.12-.19-.3.02.2-.04-.08-.02.21-.17-.57-.14-.36-.49-.02v.02c.04-.16.18-.49.28-.68-.01.02-.03.07-.03.07.02-.05-.13.2-.12.14t-.05.08c.06-.12-.16.18-.05-.02l-.05.06.06-.1c-.06.08-.1.15-.12.18-.23-.06.13-.46.06-.44l-.08.05.14-.09s-.07.03-.08.04c-.16.06.09-.07.05-.06-.04.02-.13.06-.18.08.24-.11-.33.12.19-.09-.02,0-.14.06-.18.07.08-.04.12-.07.13-.08h0s.47-.17.47-.17h0s0,0,0,0c0,0,0-.02.01-.03,0,0,0-.02,0-.02h0s0,0,.02-.04h0s0,0,0,0c-.01.02.05-.07-.1.14l.08-.11c-.34.49.16-.23-.07.09l.06-.09c-.05.07-.09.12-.03.04,0-.01.03-.04.04-.06.1-.14.03-.04-.02.02l.08-.1c-.05.06-.01.01-.03.04l.05-.06-.07.09.08-.1s.02-.03,0,0c-.03.03-.06.07-.06.08Z"/>
              <path class="cls-1" d="M74.43,7.87h0s0,0,0,0Z"/>
              <path class="cls-1" d="M75.16,8.33s-.02-.02-.03-.03c.03.03.02.02.03.03Z"/>
            </g>
            <g>
              <polygon class="cls-1" points="71.57 18.97 71.6 18.92 71.48 19.03 71.57 18.97"/>
              <path class="cls-1" d="M71.26,19.18s-.04.07-.05.09c.1-.12.21-.23.33-.33.12-.23-.36.39-.27.24Z"/>
              <path class="cls-1" d="M71.27,19.13c.03-.11-.09.08-.13.14.09-.14,0,.06.13-.14Z"/>
              <path class="cls-1" d="M70.43,19.31s0,0,0-.01c0,0,0,0,0,.01Z"/>
              <path class="cls-1" d="M70.87,19.9l.08.08c-.13-.14.02.03-.04-.06l.04.05c.04.05-.13-.18-.18-.3.01.02.04.06.05.07-.03-.05-.08-.12-.08-.13.02.03.04.07.05.08.16.23-.09-.16.03.03-.02-.03-.08-.13-.13-.2-.03-.07-.05-.12-.13-.33.03.03.06.1.11.18-.06-.23.05-.35.18-.36.14-.01.26.08.33.16.06-.1.03-.12.11-.23-.04-.18-.25.22-.27,0l.03-.11c-.06-.08-.06.29-.1.13,0-.1,0-.15,0-.16-.14.03-.34-.03-.34.27-.11-.23-.1.03-.23-.17.05.09.03.07.11.21-.1-.1,0,.13-.03.13.27.41-.08-.06,0,.09-.01-.01-.02-.03-.03-.04.07.1.1.15.05.11l.13.16c-.31-.29-.16-.03-.35-.06-.08.01-.23.05-.28.15-.05.1.02.27.35.29-.05,0-.07.01-.09.01.1.02-.05.11.06.11l-.04.02c.2-.03.2,0,.21.02,0,.03.03.06.2-.08,0,.05.05.05.14-.05l-.06.08.2-.07h0s0,0,0,0h0s-.01,0-.01,0c0,0-.01,0-.01,0,0,0,0,0,0,0,.02,0,.06.01.1.02.08.02.17.04.1.01.21.06-.51-.21-.23-.13.45.15-.51-.2-.04-.04.71.23.26.06-.15-.11.19.06-.13-.07-.07-.06l.27.38s-.02-.09,0-.22c-.09.33.1-.43.12-.33l-.05.11c.18-.32-.24.44.03-.03v-.02c.17-.23-.33.54-.16.27l-.08.11s.09-.13.12-.17c0,.01-.14.2-.1.13.33-.44-.08.08.31-.4,0,0,.16-.18.23-.29.04-.05.05,0-.13.19-.19.21-.35.4-.49.56l.13-.15c-.13.16-.07.08-.17.2-.01.03-.2.26-.26.37,0,0,0,0,.01-.02.16-.19.08-.06.07-.03l-.06.1c-.12.2.28-.37.05-.03.09-.05.13-.02.18,0,.06-.14.03.03.12-.26-.1.33-.08.43-.06.42,0,.03-.02.07-.02.05-.05.45.11-.39.05.15.05-.38.05.13.1-.31,0,.08,0,.16-.01.23.01,0,.03.02.04.03h.01s-.9-1.27-.9-1.27h0s0,0,0,0h-.03s-.07-.03-.08-.03c.31.12-.15-.04.29.12-.09-.03-.28-.09-.1-.03l-.05-.02s.05.03.32.13c-.42-.14-.34-.12-.47-.16.19.08.14.05.31.12-.18-.06.06.02-.2-.07.54.2.34.15-.07.02h-.02c.15.05.49.17.69.24-.02,0-.07-.02-.07-.02.05.02-.22-.07-.17-.05t-.09-.03c.12.05-.23-.07,0,0l-.07-.03.1.04c-.09-.03-.17-.06-.2-.07-.1-.01.38.17.3.17l-.09-.03.16.06s-.07-.02-.09-.03c-.08-.03-.05-.01-.01,0,.02,0,.04.02.06.02,0,0,.02,0,.02,0h0s0,0,0,0l.63-.11h0s0,0,0,0c-.01.01,0,0-.02.02h0c-.12.15,0,0-.06.08-.02.02-.03.03-.06.05h0s-.04.02-.04.03c-.01,0,0,0,.01-.01h-.01s0,0,0,0h0s0,0,0,0h0s0,0,0,0h0s.01,0-.01,0c-.03,0-.07-.02-.13-.04l.13.04c-.56-.21.26.1-.1-.06l.09.05c-.07-.04-.13-.08-.04-.03.01,0,.04.02.07.04.04.02.06.05-.02-.02l.07.05h0s0,0,0,0c0,0,.03.03-.01,0l.03.03s-.03-.02-.06-.05l.06.06s0,0,.02.02c-.03-.03-.06-.06-.06-.07Z"/>
              <path class="cls-1" d="M70.77,19.7h0s0,0,0,0Z"/>
              <path class="cls-1" d="M70.37,20.45s.01-.02.02-.04c-.02.03-.01.03-.02.04Z"/>
            </g>
            <g>
              <polygon class="cls-1" points="89.15 51.71 89.12 51.67 89.18 51.81 89.15 51.71"/>
              <path class="cls-1" d="M89.23,52.09s.04.06.06.09l-.17-.43c-.17-.2.22.48.11.34Z"/>
              <path class="cls-1" d="M89.18,52.06c-.08-.07.02.12.05.18-.08-.15.08.01-.05-.18Z"/>
              <path class="cls-1" d="M86.92,53.66s0,0,0-.02c0,0,0,0,0,.02Z"/>
              <path class="cls-1" d="M86.73,54.67l.09.15c-.06-.33.24-.16.28-.35l.03.05c.33-.15.45-.57.67-.87,0,.02.03.06.04.08-.02-.06-.06-.16-.04-.16.03.03.04.07.04.09.22.19.09-.27.25-.12,0-.04-.06-.14-.11-.21.19-.21.42-.42.54-.76.03.03.08.09.13.17-.04-.52.27-.5.53-.57-.06-.11-.09-.09-.14-.21-.15-.08.03.33-.15.18l-.05-.1c-.08-.03.15.25.02.16-.07-.07-.07-.13-.09-.13-.07.1-.23.08-.16.37-.16-.2-.11.06-.27-.12.03.1,0,.09.07.24-.41.1-.61.53-.96.74.11.51-.4.15-.49.41-.01-.01-.02-.03-.03-.04,0,.14-.05.25-.16.25l.06.21c-.7-.03-.83.42-1.71.83-.43.24-.96.48-1.38.77-.4.28-.71.6-.34.72-.1.02-.16.03-.19.03.04.09-.58.34-.47.4l-.12.03c.23-.06.35-.06.44-.05.09,0,.16,0,.15.05,0,.04-.02.09-.03.13-.03.06-.08.14-.03.18.51-.11.99-.23,1.53-.4.19,0,.38,0,.57,0,.16.02.34.02.48.05.31.04.61.1.84.11l-.04.09c.22-.02.35.12.51.29.17.17.4.43.61.48.23.28.44.29.54.21.03-.01.02-.16.01-.25,0-.1,0-.19,0-.26,0-.15.04-.24.13-.26.22.11.17-.22.1-.43-.07-.22-.16-.36.11-.39.86-.22.56-.81.32-1.42.41-.32-.06-1,.61-1.19-.12-.17.02-.21.19-.27.17-.04.32-.24.28-.34h-.12c.37-.07-.51-.18.04-.22h.02c.28-.02-.64-.12-.32-.13h-.14c-.04-.07.15-.01.21-.05-.02-.02-.25-.02-.17-.05.55.03-.12-.14.5-.09,0,.03.24-.02.37.05.06-.01.03-.09-.23-.11-.28-.04-.52-.1-.74-.06l.2.03c-.2,0-.1,0-.25,0-.03.07-.33.06-.45.11,0,0,.01,0,.02,0,.24.06.1.1.06.13h-.11c-.24.02.46.12.06.08.05.08.07.17.08.26.01.09,0,.2.01.17.15.03-.02.05.28.08-.34-.03-.44-.04-.43-.03-.03-.01-.06-.02-.05-.02-.41-.17.35.23-.18.08.35.16-.17.09.23.31-.08-.02-.15-.05-.22-.08-.06.13-.25.23-.32.34.27.22-.24.19.16.44-.12.03-.34.08-.21.25l-.05-.03c-.02.12-.05.27.2.45-.43-.12-.36-.04-.51-.04.17.15.05.28.19.46-.2-.05.05.12-.23.03.21.26.24.47.15.64-.08.14-.25.16-.43,0l-.02-.02c.14.11.42.4.58.61-.02-.02-.06-.06-.06-.06.03.09-.2-.14-.17-.06-.04-.05-.03-.05-.07-.1.09.17-.18-.21-.03.06l-.05-.09.07.15c-.07-.12-.17-.29-.14-.26-.03,0-.01.07-.02.12,0,.12-.18.28-.4.12.02-.02.04-.05.06-.08-.05.04-.12.07-.18.1.02-.04.04-.06.05-.08-.07-.22-.33-.02-.45-.12.02-.04.07-.12.07-.18-.19.22-.07-.39-.28.12,0-.03.05-.14.07-.18-.17.14-.4.06-.42-.02-.31.16-.45.17-.53.16-.09,0-.12-.04-.44.05-.06.01-.12.03-.19.05l.18-.07c-.45.1-.63.1-.68.07-.03-.01-.03-.03-.06-.04,0,0-.03,0-.04,0,.03-.02.06-.04.06-.06.19-.09-.03-.08.06-.16l.28-.05c-.45.03-.1-.09.17-.17.29-.08.5-.12.14-.18h.28c-.41-.02.24-.05-.49-.08h.25c-.39-.09-.2-.15,0-.18.2-.03.4-.03.25-.16l.12.05c-.06-.06-.07-.13.06-.11.01.01.05.02.07.04.29.05.32.02.32-.06,0-.08-.02-.2.06-.25l.12.16c-.11-.21.16-.13.19-.28l.05.08-.03-.14.11.15c.13-.07.15-.29.25-.39Z"/>
              <path class="cls-1" d="M87.84,53.66h0s0,0,0,0Z"/>
              <path class="cls-1" d="M88.83,52.72s.02-.01.04-.02c-.04,0-.03.01-.04.02Z"/>
            </g>
            <g>
              <polygon class="cls-1" points="92.12 54.75 92.07 54.79 92.23 54.74 92.12 54.75"/>
              <path class="cls-1" d="M92.53,54.77s.06-.04.09-.06c-.15.04-.3.08-.46.11-.2.18.51-.16.37-.05Z"/>
              <path class="cls-1" d="M92.51,54.82c-.07.1.13,0,.19-.03-.15.08,0-.1-.19.03Z"/>
              <path class="cls-1" d="M95.81,53.83s0,.01,0,.02c0,0,0,0,0-.02Z"/>
              <path class="cls-1" d="M95.77,52.77l-.13-.12c.14.3-.19.22-.19.42l-.04-.05c-.3.23-.32.67-.52,1.02-.01-.02-.04-.06-.05-.08.03.06.08.15.06.15-.03-.02-.05-.06-.05-.08-.24-.16-.06.29-.24.15,0,.04.07.14.13.2-.2.25-.44.48-.69.84-.03-.03-.06-.1-.1-.19-.06.31-.26.43-.48.45l-.1-.81c-.02.18.09-.07-.48.49-.07.07-.06.06-.06.06h0s0-.01,0-.01v-.02s-.08-.11-.08-.11c-.04-.08-.07-.16-.1-.23-.11.05-.08.1-.21.14-.05.2.37.01.28.24l-.1.07c0,.11.23-.18.16-.04h-.01s.07-.05.07-.05c.03-.03.05-.05.07-.07.02-.02-.01.01-.05.05-.07.07-.13.13-.18.17h0s0,0,0,0h0s.13-.12.13-.12c.11-.11.22-.21.33-.31.15-.13.15-.14.19-.16.04-.03.05-.03.05-.03,0,0-.01-.05,0-.08l.13,1c.16-.04.35-.04.39-.32.12.23.17-.05.31.15,0-.11.05-.1-.01-.26.56-.12.79-.63,1.13-.91-.18-.5.4-.25.45-.55.01.01.03.02.04.03-.03-.14,0-.26.11-.29l-.1-.2c.69-.14.83-.78,1.3-1.14.24-.22.51-.4.7-.64.3-.4.54-.92.36-1.24.06,0,.09-.01.11,0,0-.19.36-.44.33-.61l.07-.02c-.15-.15,0-.37.14-.62.14-.24.3-.52.01-.43.01-.02.02-.04.04-.06l.05-.14s-.13.01-.19.02c-.14.02-.28.04-.43.08-.3.07-.61.17-.9.31l.08-.12c-.29.18-.42.14-.61.12-.17-.03-.42-.04-.66.15-.26-.01-.51.26-.63.48-.13.22-.25.43-.51.43-.5-.23-.17.78-.65.56-.44-.11-.66.01-.85.33-.05.37.11.63.22.96-.41.35.07,1.02-.59,1.27.25.32-.55.26-.56.6h.13c-.21.03-.09.1.04.15.12.05.21.07-.05.12h-.03c-.26.1.67,0,.35.07l.13-.03s-.15.04-.19.09c.02.01.24-.06.17-.01-.53.18.15.08-.44.3,0-.03-.21.14-.36.1-.05.04,0,.15.25.04.26-.1.5-.15.69-.29l-.19.06c.19-.09.09-.05.23-.11,0-.07.29-.18.4-.25,0,0-.01,0-.02,0-.24.05-.11-.04-.08-.05l.11-.03c.23-.05-.46.08-.06,0-.12-.01-.13-.08-.09-.15-.15-.05.03-.05-.26-.13.34.07.46-.02.46-.06.03.01.06.03.05.03.45.06-.35-.23.19-.13-.36-.14.17-.1-.24-.29.08.02.16.04.22.07.06-.14.24-.25.3-.36-.28-.21.23-.19-.17-.44.12-.04.34-.09.2-.25l.05.03c.02-.12.04-.27-.2-.45.43.12.36.04.51.04-.09-.06-.09-.16-.11-.2-.03-.03-.05-.06-.12-.12.18.11-.05-.07.19.11-.13-.07-.14-.2-.11-.3.02-.1.08-.17.16-.22.16-.09.4-.08.66,0v.02c-.06-.16-.22-.48-.31-.68.02.02.05.06.04.06.02-.08.24.12.26.04.03.04.03.04.04.09-.02-.15.23.14.16-.1l.04.06-.02-.12c.05.08.13.21.09.2.12-.05.23-.12.33-.22.09-.09.08-.14.13-.23.07-.15.27-.36.4-.36l-.06.13c.05-.08.1-.16.16-.25-.03.07-.05.1-.07.13-.06.21.23-.2.29-.17-.05.07-.14.2-.2.29.35-.42-.35.51.34-.34-.03.04-.18.23-.24.3.35-.31.57-.35.53-.21.26-.2.44-.32.56-.38.06-.03.06,0,.04.04-.05.09-.15.21.21.05l-.19.12c.27-.09.16.09.01.25-.15.17-.34.34-.37.44-.12.11,0,.15-.07.27h-.16c.24.08.03.21-.13.28-.17.08-.29.08-.12.3l-.14-.1c.21.16-.15.05.23.3l-.14-.04c.39.48-.4.1-.21.5l-.08-.07c.04.09.05.19-.05.16,0-.01-.04-.03-.05-.06-.45-.11-.18.33-.31.47l-.15-.14c.13.21-.14.21-.13.37l-.07-.06.07.13-.15-.12c-.11.11-.07.32-.15.45Z"/>
              <path class="cls-1" d="M94.85,54.05h0s0,0,0,0Z"/>
              <path class="cls-1" d="M93.82,53.84l-.03.02s.03-.02.03-.02Z"/>
            </g>
            <g>
              <path class="cls-1" d="M77.51,60.88l.23-.13c.13-.19.27-.37.42-.56-.23.22-.44.45-.65.69Z"/>
              <path class="cls-1" d="M80.81,57.74c-.12.06-.1-.02-.23.04l-1.8,2.03c1.09-.55,1.31-1.72,2.03-2.08Z"/>
              <path class="cls-1" d="M81.45,57.28c.88-.57,1.08-1.01,1.23-1.2-.2.33-1.55,1.17-1.23,1.2Z"/>
              <path class="cls-1" d="M96.16,68.41c.08-.05.19-.11.28-.15-.15.06-.23.12-.28.15Z"/>
              <path class="cls-1" d="M77.53,81.43l-.17.25c2.06-.99,4.01-2.38,5.99-3.76,2.02-1.31,4-2.83,5.57-4.63l-.17.28c.57-.59,1.09-1.23,1.55-1.91.23-.34.44-.69.63-1.05.2-.38.29-.6.42-.92l.02-.06s.03.01.05.02l.1.04.21.09.21.09c.08.04.2.08.32.09.41.06.82.08,1.23.06.82-.05,1.62-.26,2.36-.58,1.47-.64,2.82-1.48,4.03-2.5.6-.51,1.17-1.06,1.69-1.66.26-.29.51-.6.75-.91.22-.28.41-.6.62-.86.23.19.46.38.72.54.27.18.57.35.86.49.6.29,1.24.49,1.9.6.66.11,1.32.14,1.99.1.66-.05,1.33-.12,1.94-.39,2.51-.94,4.59-2.8,6.09-5.06-.09.16-.08.25-.18.41.29-.5.54-1.09.87-1.63.12-.12-.02.19-.12.38.64-.81,1.3-2.16,1.74-3.47.08-.23.14-.46.21-.68.08-.21.13-.45,0-.65-.27-.37-.85-.44-1.16-.16-.53.63-.89,1.13-1.2,1.43-.39.58-.48.91-.18.64-1.37,1.87-2.73,3.91-4.75,5.38-.5.37-1.04.69-1.61.95-.28.15-.58.23-.88.35-.38.12-.65.13-.99.16-1.31.09-2.66-.46-3.59-1.37-.14-.12-.28-.3-.43-.44l-.21-.24s-.09-.08-.08-.12l.05-.15.22-.59.15-.44c.18-.56.32-1.13.43-1.71.22-1.15.28-2.33.21-3.5-.04-.58-.12-1.16-.23-1.73-.12-.59-.22-1.18-.36-1.74-.27-1.14-.64-2.25-1.07-3.33-.07-.24-.08-.38-.06-.42.01-.06.06-.07.12-.04-.3-.67-.92-1.13-1.62-1.36-3.26-.67-7.09.55-9.41,3.11-.15.15-.28.32-.42.49-.05.04-.18.27-.33.38l-.37.24-1.14.78c-.76.53-1.5,1.08-2.25,1.64-1.49,1.12-2.96,2.27-4.47,3.38-.19.29.76-.41.17.19,2.26-1.5,3.69-3.26,5.76-4.51l-.18.28c1.45-.96.11-.46,1.67-1.37.64-.32-.06.22.21.04l.61-.41c.09-.07.2-.11.25-.21l.18-.23.19-.25c.27-.33.57-.64.89-.92.64-.57,1.37-1.06,2.14-1.45,1.54-.78,3.24-1.2,4.88-1.23.15.05.38.11.65.16.14.03.29.05.44.09.13.03.27.06.42.1.11.05.22.1.34.16.1.05.19.11.29.18.09.07.19.16.28.25l.14.15s.03.03.03.04l.04.07c.21.31.36.99.43,1.38.4.85.62,1.77.87,2.07.15.62.27,1.22.36,1.86.12.65.21,1.24.25,1.86.09,1.23,0,2.48-.23,3.69-.12.61-.28,1.21-.47,1.8l-.48,1.32c.14.22.35.43.53.63.09.1.18.21.28.3l.21.2c.56.49,1.23.91,1.98,1.13.74.23,1.54.26,2.28.15,3.04-.73,4.95-2.95,6.58-5.05l1.94-2.65.24-.31c.1-.09.25-.1.37-.04.12.05.21.19.16.32l-.12.37c-.05.13-.09.26-.15.39-.09.21-.25.6-.39.88-.29.61-.62,1.2-.97,1.78-.71,1.15-1.56,2.21-2.55,3.11-2.49,2.66-6.95,4.51-11.06.6l-.93,1.28c-.24.3-.45.54-.69.81-.47.51-.97,1-1.5,1.45-1.07.91-2.24,1.68-3.51,2.32-.05,0-.05-.01-.02-.05-1,.57-2.36,1.07-3.77.86-.08,0-.11-.01-.2-.06l-.41-.17-.41-.17-.21-.09c-.06,0-.16-.12-.17,0l-.32.78c-.1.26-.25.55-.31.68-.34.66-.77,1.27-1.21,1.81-.44.66-.94,1.3-1.47,1.91-1.29,1.15-2.65,2.22-4.13,3.17-1.46.99-2.88,2.01-4.39,2.85-1.5.85-3.11,1.48-4.79,1.76-.42.08-.84.11-1.27.15l-.64.03c-.12,0-.13,0-.23-.01l-.31-.06c-.82-.17-1.61-.46-2.28-.9l-.33.97h.18s.04.01.04.01h.01s.03,0,.03,0c.04-.01.07,0,.23-.08l.24-.43-.15-.39c-.2-.16-.17-.11-.18-.12h0s-.02,0-.02,0h-.04s0-.01,0-.01h-.02s-.04,0-.04,0c-.08-.05-.22-.19-.38-.32l-.71-.59-.17.89-.07.36.57-.43-.15-.02-.41-.04-.16.44h0s-.22.62-.22.62l.69.06h.16s-.48-.61-.48-.61c-.91,4.89-2.33,9.73-4.44,14.24-2.15,4.47-5.36,8.44-9.31,11.42-1.97,1.5-4.08,2.74-6.28,3.69-2.23.92-4.47,1.74-6.76,1.98-2.28.26-4.58,0-6.66-.82-2.08-.82-3.93-2.16-5.43-3.83-3.03-3.33-4.73-7.77-5.93-12.22-1.12-4.49-1.42-9.27-.58-14.05.04.03.1-.11.01.38,1.07-5.46,3.25-10.32,7-13.95l.02.05c2.27-2.29,5.22-4.05,8.49-4.71l.65-.12c.28-.05.58-.08.86-.11l.84-.08.42-.04c.12-.02.37.01.19-.14l-1.04-1.31-.52-.66c-.14-.2-.24-.36-.36-.54l-.69-1.06c-.22-.36-.4-.74-.6-1.11-.43-.73-.71-1.52-1.04-2.29-1.16-3.15-1.59-6.54-1.36-9.84.21-3.3.91-6.51,1.88-9.54.17-.46.34-.92.51-1.38.21-.52.43-1.05.65-1.57.09-.25.26-.57.28-.75l-.82.25c-.55.17-1.1.33-1.65.5-1.92.58-3.85,1.18-5.8,1.81-3.89,1.27-7.83,2.67-11.68,4.36-1.93.83-3.83,1.77-5.64,2.86-1.8,1.1-3.54,2.36-4.9,4.01-1.28,1.68-2.31,3.61-2.55,5.72-.26,2.08.28,4.27,1.61,5.87l-.1.03c.69.94,1.64,1.62,2.59,2.23,1,.53,2.05,1,3.17,1.22,2.2.5,4.51.51,6.71,0,2.2-.5,4.29-1.47,6.11-2.82.45-.34.92-.72,1.21-.98.34-.28.6-.64.95-.87.39-.19.91.09,1,.52.05.22-.06.43-.2.6l-.37.52-.33.45c-.13.15-.23.25-.41.44-.35.34-.64.75-1.03,1.04l-1.13.95-1.24.82c-1.69,1.02-3.54,1.81-5.49,2.29-1.63.3-3.3.54-4.98.42-.84,0-1.67-.16-2.5-.27-.42-.05-.82-.2-1.23-.3-.41-.11-.82-.2-1.21-.38l-1.17-.48c-.39-.17-.74-.41-1.11-.62-.77-.38-1.38-.99-2.06-1.49-1.21-1.2-2.32-2.54-2.98-4.14-1.38-3.19-1.06-6.93.22-10.12,1.28-3.23,3.6-6.01,6.47-7.85,3.57-2.24,7.79-4.65,12.18-6.64,4.38-2.01,8.85-3.66,12.67-4.7,1.96-.57,3.9-1.14,5.83-1.75l2.88-.93.72-.23.41-.14c.07-.03.16-.04.22-.08l.13-.2.85-1.3c2.22-3.34,4.61-6.54,7.13-9.63,2.57-3.04,5.03-6.26,8.34-8.54,3.25-2.33,7.1-3.93,11.17-4.45.62-.05,1.24-.08,1.87-.08.62-.02,1.26,0,1.88.1,1.24.18,2.45.58,3.55,1.19,1.09.6,2.09,1.47,2.67,2.61.3.57.43,1.21.48,1.83.05.31.07.62.07.93,0,.31.04.62,0,.94-.05,2.51-1.07,4.94-2.56,6.92-1.5,2-3.45,3.58-5.48,4.95l.13-.23v.08s-.04.6-.04.6l-.44-.39-.02-.02h.31s-.03,0-.03,0l.13-.16-.07.23-.33-.38s.04-.02.08,0l.41.19v.1c-.46,4.85-.98,9.64-1.55,14.38-.13,3.44-.55,7.04-1,10.74-.23,1.85-.46,3.72-.69,5.6-.1.94-.2,1.89-.31,2.84-.07.99-.04,1.92-.05,2.88l.12-.27c-.39,2.74.45,6.13-.11,7.84l-.02-.29c-.04.19-.05.36-.06.57,0,.24,0,.48.02.7.04.45.11.83.19,1.08.08.26.15.41.18.58.02.09.02.18.02.32v.11s-.02.08,0,.06c.02,0,.03,0,.04.02l.22-.56c.38-.59.39-.53.38-.43-.01.1-.07.29.3-.19.28-.43.05-.52.57-1.1.25.15.85-.83,1.52-1.63.67-.83,1.42-1.57,1.68-1.4-.67.67,1.22-.88-.19.72.44-.41,2.57-2.39,2.2-2.41.01-.37.72-1.33-.77-.3l-.13.4c-.58.26-.41.24-.67.28-1.73,1.61-2.16,1.65-3.36,2.94.02-.01.03-.02.02,0-.14.27-.28.56-.46.84l-.16.26-.11.16c-.15.2-.27.3-.34.36,0-.06,0-.14.02-.22.03-.15,0-.11-.04-.01-.03.04-.08.12-.13.16-.1.07-.17.04.04-.22,0-.15-.02-.3-.03-.46,0-.54,0-1.08,0-1.63,0-1.27,0-2.57,0-3.89,0-1.32.02-2.65.03-3.99v-.95s.1-1,.1-1l.17-1.99c-.09-.75.37-4.06-.03-2.92.46-1.3.88-5.24,1-6.71.03.06.06.12.03.35.69-2.8-.12-3.41.65-6.02-.34-.45.54-4.83.23-6.38.12-.32.2-.42.26-.3.29-3.01.65-6.22.95-8.89l-1.13-.33c-.11-.23-.21-.56-.24-.71.01,0,.02,0,.03,0l1.17,1.31c.03-.09.06-.18.07-.23l-.44.58s.04-.02.05-.03l-1.1.03s-.05-.03-.07-.04l1.67-.74s0-.07,0-.09l-.46.8c1.64-1.06,2.88-2.04,3.93-3.04,1.2-1.38,2.66-3.11,3.55-5.16.89-2.04,1.12-4.29.73-5.86-.03-.33-.06-.69-.09-1.07-.08-.41-.19-.86-.38-1.28-.37-.85-.99-1.65-1.76-2.28-1.54-1.26-3.53-1.95-5.42-2.06h.37c-.53-.09-1.1-.1-1.65-.09-.53.03-1.06.02-1.61.08-1.09.08-2.18.27-3.21.51-2.07.47-3.88,1.26-5.07,1.95-1.27.09-2.79.99-4.31,1.88-1.06.85-2.66,2.14-4.16,3.78-1.46,1.61-2.97,3.37-4.18,4.97-.56.33-2.02,2.62-2.37,2.61-1.62,2.31-3.28,4.78-4.9,7.4l-.56.93s-.03.07-.06.1l-.1.04-.51.18c-.73.26-1.47.53-2.21.79-1.46.52-2.95,1.03-4.45,1.53-6.01,2-12.18,3.9-17.75,6.24l.15-.09c-1.36.79-2.81,1.93-4.1,2.86-.15.05-.16,0,.14-.16-1.89,1.1-3.82,1.89-5.58,3.21q-.01-.05.25-.29c-1.62,1.22-3.69,2.46-4.99,4.64l-.15.06c-.29.45-.52.93-.79,1.39-.06-.08-.16-.21.34-.92-2.23,3.29-3.53,7.44-2.82,11.56.35,2.04,1.25,4.01,2.57,5.6,1.3,1.61,3,2.87,4.84,3.77,3.76,1.73,8.04,1.85,11.94.84,1.97-.47,3.83-1.35,5.55-2.41.42-.29.85-.56,1.25-.86l1.16-.99c.39-.32.7-.74,1.06-1.1.43-.41.86-1.08,1.25-1.65l.28-.64c.09-.22.21-.42.2-.62.02-.44-.34-.95-.8-1.14-.23-.1-.48-.15-.7-.12-.23.03-.37.11-.57.24-.2.14-.36.2-.58.4l-.7.66c-.54.5-.8.71-1.14.97-.33.26-.68.5-1.03.74-.7.47-1.45.87-2.22,1.21.19-.13.39-.24.57-.38-1.04.59-2.16,1.05-3.31,1.39,0-.05.17-.12.33-.18-2.23.5-4.59.55-6.84.07-2.25-.46-4.32-1.71-5.57-3.49.05,0,.54.44.21-.06-1.03-1.22-1.23-2.57-1.25-3.61,0-.27-.02-.52,0-.76.03-.24.05-.47.06-.7-.01-.45.08-.86.04-1.3.06-.14.21-.2.17.13.09-.55.36-1.05.55-1.58.23-.52.54-1.01.81-1.51.58-.98,1.33-1.83,2.21-2.61,1.74-1.55,3.81-2.76,5.94-3.85,4.29-2.1,8.85-3.75,13.39-5.22,1.85-.75,3.78-1.43,5.77-2.07.81-.26,1.63-.52,2.45-.78.3-.16.07.16.03.3l-.22.53-.22.53-.26.72c-1.51,4-2.46,8.34-2.22,12.52l-.1-.04c.11,2.7.61,5.43,1.63,8,.52,1.28,1.12,2.53,1.87,3.71.38.57.75,1.21,1.15,1.69l.59.76.15.19.07.09s-.06.01-.09.02l-.48.04c-1.22.06-2.7.37-4,.83-1.34.45-2.61,1.08-3.79,1.86-1.19.76-2.29,1.66-3.27,2.67-.99,1-1.89,2.09-2.64,3.28-1.32,1.93-2.02,3.78-2.68,5.59-.64,1.84-1.13,3.73-1.5,6.03l-.14.1c-.37,3.91-.36,8.05.43,12.16.39,2.05.98,4.08,1.76,6.01.72,1.96,1.75,3.82,3.04,5.41l-.47-.37c.24.23.53.59.84,1.01.33.4.7.83,1.03,1.22.71.74,1.31,1.27,1.29.94.3.37.68.68,1.01,1.03,2.36,1.48,4.7,2.41,7.34,2.78,2.63.35,5.6.01,8.66-1.48l-.38.26c1.68-.69,3.53-1.67,4.74-2.24-.18.11-.07.09-.44.32,2.61-1.15,5.04-3.01,7.17-5.19,2.11-2.2,3.91-4.72,5.37-7.32-.05.23-.1.47-.16.69,1.34-2.58,3.49-7.44,4.37-11.15l.03.25c.13-.63.25-1.26.37-1.89h.2c.35-1.4.63-2.79.86-4.12l.05-.29-.28-.02c-.05,0-.11,0-.16-.01l.23.32v-.02s-.27.19-.27.19c.05,0,.1,0,.15.01l.24.02.04-.23c.02-.12.04-.24.06-.36l-.41.14c.18.14.36.31.57.46h.1s.05.01.05.01h.02s.01,0,0,0h0s0,0,0,0l.09-.22h0s0-.02,0-.04v-.08s0-.15,0-.12h-.14s-.9-.06-.9-.06l.75.48c.63.41,1.33.67,2.04.85.36.08.68.16,1.09.19.37-.03.72-.04,1.08-.08,1.42-.16,2.81-.54,4.13-1.11Z"/>
              <path class="cls-1" d="M117,58.96s-.02.03-.03.04c-.06.13-.03.07.03-.04Z"/>
              <path class="cls-1" d="M71.77,64.2c.14-.18.26-.33.4-.48-.06.01-.28.32-.4.48Z"/>
            </g>
          </g>
        </g>
      </g>
      <g>
        <g>
          <polygon class="cls-3" points="76.49 88.13 76.16 88.26 77.14 88.43 76.49 88.13"/>
          <path class="cls-3" d="M78.82,89.55c.17-.07.46-.08.62-.15-.95-.2-1.89-.42-2.84-.65-1.49.62,3.21.41,2.22.8Z"/>
          <path class="cls-3" d="M78.58,89.86c-.59.45.71.43,1.15.45-1,.01.22-.71-1.15-.45Z"/>
          <path class="cls-3" d="M102.26,111.02s-.08.05-.11.09c.06.04.1,0,.11-.09Z"/>
          <path class="cls-3" d="M109.09,104.8l-.38-.95c-.2,1.1-.91,1.42-1.65,1.52-.37.08-.75.06-1.11.13-.35.07-.7.19-1.03.44l.03-.37c-1.87.21-3.57.69-5.38,1.19-1.8.51-3.75.85-5.82.61.09-.08.21-.36.3-.45-.28.28-.71.82-.9.66.02-.23.22-.43.32-.5-.11-.94-.75-.86-1.39-.87-.64.02-1.35.08-1.23-.62-.28.02-.77.55-.94,1.08-.74-.42-1.58-.79-2.27-1.36l-1.1-.81c-.36-.28-.67-.61-1.02-.91l-1.04-.94-.96-1.01-1.01-1.02c-.31-.35-.62-.7-.96-1.04.14-.25.56-.46,1.11-.65-1.93-.81-2.7-2.23-3.2-3.72-.17-.74-.24-1.51-.28-2.28l-.04-1.15.04-1.12c-.73,0-.72.41-1.5.23-.79,1.12,2.03,1.45.92,2.56l-.71.03c-.3.74,1.75-.24,1.01.61-.51.39-.88.13-.9.27.51,1.28.48,2.98,2.46,3.69-1.35.85.55,1.45-.57,2.54.7.11.72.53,1.68.22.84,2.47,2.53,4.81,4.9,6.46,2.34,1.68,5.05,2.65,7.64,3.35,1.57-1.1,2.69-.82,4.02-.32.65.21,1.33.49,2.03.63.68.11,1.39.1,2.05-.19.03.1.04.21.03.3.81-.84,2-1.3,3.06-1.17l.59-1.37c1.67.28,3.4.04,4.96-.5,1.54-.57,2.98-1.39,4.25-2.38,2.58-1.94,4.59-4.33,6.95-6.41,2.49-2.52,4.86-4.98,6.54-7.83,1.66-2.84,2.6-6.1,1.88-9.87.26.1.43.1.49.31.09-1.99,1.59-3.36,1.48-5.28l.28.08c-.62-2.48-.03-4.67.37-6.94.41-2.24.7-4.54-.49-6.73.28-2.54.29-5.29-.04-8.04-.33-2.75-.97-5.48-1.8-8.04l.57-.09c-1.01-2-.98-4.14-1.05-6.32-.06-2.18-.16-4.42-1.34-6.32-.13-2.34-1.78-4.23-3.47-5.95-1.69-1.74-3.37-3.31-3.8-5.64.45-1.92-1.17-2.87-2.77-3.56-1.61-.74-3.14-1.24-3-3.17-.33-3.42-2.55-5.67-5.37-6.44-2.81-.83-6.07-.08-8.36,1.41-1.14-.36-2.31-.15-3.37.27-1.05.47-1.99,1.14-2.83,1.9-1.71,1.49-3.07,2.97-5.78,3.67.1,1.5-1.06,1.95-2.42,2.51-1.35.53-2.9,1.15-3.23,2.44l.68.26c-1.17-.1-.74.71-.38,1.4.37.7.66,1.26-.94.84l-.09-.15c-1.73-.22,3.09,2.57,1.2,2.04l.72.38c0,.6-.88-.3-1.34-.02.03.19,1.35.62.79.75-3.14-1.15.19,1.54-3.33.27.11-.31-1.54-.01-2.02-.98-.43.07-.62,1.11.91,1.54,1.57.63,2.83,1.46,4.25,1.35l-1.12-.51c1.22.23.63.07,1.52.31.41-.63,2.11-.09,2.97-.29-.04,0-.07-.02-.12-.05-1.25-.85-.25-.97.05-1.13l.67.17c1.37.42-2.27-1.83-.1-.66.01-1.5.73-2.97,1.49-4.28-.7-.67.68-.96-1.02-1.62,1.96.74,2.96.14,3.15-.22.15.12.31.27.22.27,1.3.47.92-.05.62-.57-.3-.49-.51-.97.96-.2-.85-.77-.51-.92-.17-1.08.34-.17.64-.38-.19-1.47.43.29.77.59,1.04.9.9-.84,2.39-.95,3.13-1.32-.22-1,.31-1.12.75-1.15.22-.03.42-.08.54-.31.12-.2.16-.57.09-1.29.36.16.83.49,1.22.62.4.1.73.11,1.01-.53l-.02.35c.76-.25,1.65-.42,2.52-2.04-.07,2.65.3,2.21.45,3.1.78-1.09,1.76-.44,3.09-1-.2.59.03.55.23.57.19.04.35.14-.07.93,1.98-.89,3.85-.24,5.01,1.12,1.19,1.37,1.73,3.41,1.67,5.5l-.13.04c1.04-.27,3.07-1.11,4.4-1.44-.1.13-.34.29-.4.21.68.35-.46,1.87.18,2.22q-.25.16-.55.22c1.02.09-.56,1.81.99,1.7l-.39.27.8.07c-.52.28-1.3.71-1.24.4,1.1,2.5,2.85,4.76,4.5,7.25,1.64,2.47,3.17,5.17,3.68,8.13l-.6-.08c.42.29.85.58,1.25.89-.29.06-.44.04-.59.02-.64,1.65,1.3,2.79,1.32,4.28-.28.04-.88-.07-1.17.19,1.76.78-1.78,2,1.6,2.01-.15.07-.88.22-1.17.15,1.55,2.77,1.77,5.8,1.26,8.75,1.51,1.21,1.59,2.57,1.49,3.91-.07,1.35-.28,2.66.76,4.12l-.6-.08c.84,1.82.53,3.61-.08,5.32-.58,1.72-1.48,3.33-1.76,5.09-.65,1.34-.26,2.5-.74,3.93l-.72-.22c.47.83.43,1.51.12,2.09-.29.59-.82,1.09-1.38,1.57-1.08.98-2.14,1.88-1.33,3.75l-.83-.62c1.22,1.08-1.21,1.11,1.24,2.26l-.94.02c1.11,1.64.35,2.21-.61,2.63-.94.46-2.03.79-1.7,2.35l-.45-.49c.09.77-.01,1.55-.74,1.55-.03-.11-.2-.2-.26-.41-1.55-.02-2.07.7-2.39,1.68-.34.95-.49,2.15-1.21,2.79l-.7-.99c.2.82-.26,1.3-.81,1.7-.54.43-1.2.73-1.45,1.36l-.3-.48c.01.33.03.67.02,1l-.7-.89c-1.21.84-1.88,2.41-3.19,3.23Z"/>
          <path class="cls-3" d="M93.48,107.07s0,.02,0,.04c.08-.08.05-.07,0-.04Z"/>
          <path class="cls-3" d="M88.63,28.67c-.09.04-.17.06-.28.08.22.07.21-.05.28-.08Z"/>
        </g>
        <g>
          <polygon class="cls-3" points="89.7 85.94 89.71 85.99 89.75 86.11 89.7 85.94"/>
          <path class="cls-3" d="M89.98,86.71s0-.02,0-.04c-.08-.14-.15-.28-.2-.43.03.22.16.34.2.48Z"/>
          <path class="cls-3" d="M90.02,86.85c.04.19.11.24.15.27-.06-.04-.12-.33-.15-.27Z"/>
          <path class="cls-3" d="M102.01,98.25s-.05.01-.07.03c.03.02.06,0,.07-.03Z"/>
          <path class="cls-3" d="M105.93,95.4l-.17-.46c-.14.59-.54.72-.94.81-.4.11-.82.09-1.17.36l.02-.17c-.49.12-.97.14-1.45.27-.48.07-.97.14-1.47.18-.99.03-2.08-.03-3.08-.47.05-.02.1-.1.15-.12-.14.06-.35.19-.44.11,0-.08.1-.12.15-.13-.06-.36-.4-.4-.7-.52-.3-.1-.6-.19-.6-.43-.13-.03-.31.1-.34.27-1.38-1.02-2.67-2.34-3.72-3.71,0-.1.05-.16.14-.2-.61-.47-.96-1.14-1.28-1.83-.33-.68-.59-1.4-.84-2.1-.05-.04.02.16-.06.04.1.49.39.78.47,1.23l-.07-.02c.09.32.16-.02.22.32,0,.15-.09.01-.07.07.3.6.49,1.33.99,1.76-.12.27.36.64.28,1.01.17.09.24.27.42.21.25.56.62,1.06.98,1.56.35.52.79.97,1.25,1.41.9.91,2.02,1.61,3.18,2.3.39-.09.73-.08,1.05.01.32.1.63.27.97.41.33.15.68.37,1.05.47.37.09.77.15,1.15.08.01.04.01.09,0,.12.5-.3,1.18-.47,1.79-.42.13-.21.24-.42.35-.63,1.79.19,3.52-.48,4.95-1.4,1.46-.92,2.65-2.1,4.06-3.06,1.5-1.19,3-2.28,4.15-3.64,1.14-1.35,1.94-2.96,1.8-5.12.15.1.26.12.27.24.2-1.07,1.27-1.57,1.38-2.62l.17.09c-.13-1.43.46-2.52.99-3.67.54-1.14.95-2.42.42-3.74.87-2.67,1.21-5.83,1.02-8.79l.38.05c-.54-2.38,1.58-4.52,1-6.92.42-1.21-.11-2.47-.61-3.69-.5-1.23-.95-2.43-.55-3.66.75-.81.19-1.65-.34-2.44-.51-.8-1.04-1.55-.38-2.36.45-.8.6-1.58.6-2.32-.04-.74-.23-1.44-.56-2.11-.67-1.33-1.69-2.52-2.73-3.59-.23-1.33-1.12-2.37-1.94-3.33-.45-.45-.84-.94-1.29-1.37-.4-.49-.86-.9-1.29-1.42-.3-.07-.6-.16-.86-.34-.27-.16-.52-.39-.82-.53-.29-.16-.6-.32-.92-.45-.33-.09-.68-.13-1.02-.14l.04.09c-.48-.3-1.09.26-1.4-.03l.05-.02c-.27-.09-.58.3-.75.16l-.04.05c-.31.04-.04-.05-.28-.03-.09.02-.03.08-.21.08-.06-.12-.75.12-.79.05.17-.04-.26.05.1-.07-.1.03-.41.13-.56.17-.04.01-.24.05.07,0h.06c.11-.02.08-.02.12-.02.42-.04.48,0,.78.02h0c.2-.06.48-.05.64-.03l.07.04c.1.11.45-.13.34.02.41.03.85.04,1.29.11.43.1.87.21,1.3.32.15-.08.62.27.52-.08.13.4.68.72.87.87-.02.03-.05.06-.07.03.14.74.67-.15.71.67.32-.4.45.66.99.28-.03.13-.09.23-.16.3.52.55.85,1.35,1.12,1.91.81.04.34,1.32,1.34,1.21.01.47-.15,1.26.43,1.58h-.13c.24.59.55,1.28,1.32,1.47-.96.57-.7.76-.97,1.14.61.23.61,1.14,1.23,1.64-.51.24.33.48-.46.72,1.88,1.42,1.76,4,.38,6.13l-.07-.02c.54.2,1.74.38,2.46.59-.08.03-.25.05-.25-.01.21.36-.75.8-.56,1.15q-.17,0-.33-.04c.46.32-.78.77.01,1.13l-.27.04.38.24c-.34.01-.85.03-.74-.11-.17,1.59.18,3.18.5,4.83.33,1.64.65,3.33.37,4.97l-.35-.15.59.69c-.19-.02-.28-.06-.37-.09-.72.76.27,1.7.01,2.48-.19-.02-.55-.18-.77-.1.99.71-1.49.77.66,1.32-.11.01-.6-.03-.77-.11.52,1.71.2,3.39-.49,4.9.86.87.73,1.6.55,2.31-.2.71-.44,1.37.08,2.3l-.38-.14c.36,1.1-.05,2.02-.61,2.83-.56.82-1.26,1.56-1.6,2.48-.52.64-.38,1.34-.78,2.06l-.42-.23c.43,1.05-.3,1.47-1.01,1.87-.71.41-1.38.8-1,1.95l-.45-.44c.67.75-.77.5.61,1.4l-.55-.09c.58,1.04.09,1.26-.47,1.41-.57.16-1.18.28-1.07,1.17l-.23-.3c.01.43-.07.86-.47.82-.01-.06-.11-.12-.13-.24-.87-.12-1.18.27-1.39.8-.22.51-.35,1.16-.76,1.49l-.34-.56c.12.89-1.01.98-1.33,1.61l-.14-.26-.03.53-.34-.47c-.68.46-1.09,1.3-1.82,1.72Z"/>
          <path class="cls-3" d="M97.53,95.77s0,0,0,.01c.04-.02.03-.02,0-.01Z"/>
          <path class="cls-3" d="M109.32,31.33s-.07,0-.11,0c0,0,.07,0,.11,0Z"/>
        </g>
      </g>
    </g>
  </g>
</svg>